%TF.GenerationSoftware,KiCad,Pcbnew,9.0.0*%
%TF.CreationDate,2025-08-24T13:42:27+02:00*%
%TF.ProjectId,Rivian-A,52697669-616e-42d4-912e-6b696361645f,rev?*%
%TF.SameCoordinates,Original*%
%TF.FileFunction,Drillmap*%
%TF.FilePolarity,Positive*%
%FSLAX45Y45*%
G04 Gerber Fmt 4.5, Leading zero omitted, Abs format (unit mm)*
G04 Created by KiCad (PCBNEW 9.0.0) date 2025-08-24 13:42:27*
%MOMM*%
%LPD*%
G01*
G04 APERTURE LIST*
%ADD10C,0.050000*%
%ADD11C,0.200000*%
%ADD12C,0.100000*%
G04 APERTURE END LIST*
D10*
X15500000Y-7030000D02*
G75*
G02*
X15650000Y-7180000I0J-150000D01*
G01*
X15650000Y-10490000D02*
G75*
G02*
X15500000Y-10640000I-150000J0D01*
G01*
X11790000Y-7180000D02*
G75*
G02*
X11940000Y-7030000I150000J0D01*
G01*
X11940000Y-10640000D02*
G75*
G02*
X11790000Y-10490000I0J150000D01*
G01*
X15650000Y-7180000D02*
X15650000Y-10490000D01*
X11940000Y-7030000D02*
X15500000Y-7030000D01*
X15500000Y-10640000D02*
X11940000Y-10640000D01*
X11790000Y-10490000D02*
X11790000Y-7180000D01*
D11*
D12*
X12180000Y-7520000D02*
X12210000Y-7550000D01*
X12210000Y-7520000D02*
X12180000Y-7550000D01*
X12280000Y-7435000D02*
X12310000Y-7465000D01*
X12310000Y-7435000D02*
X12280000Y-7465000D01*
X12380000Y-7340000D02*
X12410000Y-7370000D01*
X12410000Y-7340000D02*
X12380000Y-7370000D01*
X12580000Y-7155000D02*
X12610000Y-7185000D01*
X12610000Y-7155000D02*
X12580000Y-7185000D01*
X12580000Y-7260000D02*
X12610000Y-7290000D01*
X12610000Y-7260000D02*
X12580000Y-7290000D01*
X12785000Y-7175000D02*
X12815000Y-7205000D01*
X12815000Y-7175000D02*
X12785000Y-7205000D01*
X12920000Y-7281117D02*
X12950000Y-7311117D01*
X12950000Y-7281117D02*
X12920000Y-7311117D01*
X13385000Y-7205000D02*
X13415000Y-7235000D01*
X13415000Y-7205000D02*
X13385000Y-7235000D01*
X13435000Y-8325000D02*
X13465000Y-8355000D01*
X13465000Y-8325000D02*
X13435000Y-8355000D01*
X14280000Y-8845000D02*
G75*
G02*
X14240000Y-8845000I-20000J0D01*
G01*
X14240000Y-8845000D02*
G75*
G02*
X14280000Y-8845000I20000J0D01*
G01*
X14560000Y-8845000D02*
G75*
G02*
X14520000Y-8845000I-20000J0D01*
G01*
X14520000Y-8845000D02*
G75*
G02*
X14560000Y-8845000I20000J0D01*
G01*
X13855000Y-7760000D02*
X13855000Y-7840000D01*
X13815000Y-7800000D02*
X13895000Y-7800000D01*
X13855000Y-7960000D02*
X13855000Y-8040000D01*
X13815000Y-8000000D02*
X13895000Y-8000000D01*
X14055000Y-7760000D02*
X14055000Y-7840000D01*
X14015000Y-7800000D02*
X14095000Y-7800000D01*
X14055000Y-7960000D02*
X14055000Y-8040000D01*
X14015000Y-8000000D02*
X14095000Y-8000000D01*
X14255000Y-7760000D02*
X14255000Y-7840000D01*
X14215000Y-7800000D02*
X14295000Y-7800000D01*
X14255000Y-7960000D02*
X14255000Y-8040000D01*
X14215000Y-8000000D02*
X14295000Y-8000000D01*
X14455000Y-7760000D02*
X14455000Y-7840000D01*
X14415000Y-7800000D02*
X14495000Y-7800000D01*
X14455000Y-7960000D02*
X14455000Y-8040000D01*
X14415000Y-8000000D02*
X14495000Y-8000000D01*
X14655000Y-7760000D02*
X14655000Y-7840000D01*
X14615000Y-7800000D02*
X14695000Y-7800000D01*
X14655000Y-7960000D02*
X14655000Y-8040000D01*
X14615000Y-8000000D02*
X14695000Y-8000000D01*
X14855000Y-7760000D02*
X14855000Y-7840000D01*
X14815000Y-7800000D02*
X14895000Y-7800000D01*
X14855000Y-7960000D02*
X14855000Y-8040000D01*
X14815000Y-8000000D02*
X14895000Y-8000000D01*
X15055000Y-7760000D02*
X15055000Y-7840000D01*
X15015000Y-7800000D02*
X15095000Y-7800000D01*
X15055000Y-7960000D02*
X15055000Y-8040000D01*
X15015000Y-8000000D02*
X15095000Y-8000000D01*
X15255000Y-7760000D02*
X15255000Y-7840000D01*
X15215000Y-7800000D02*
X15295000Y-7800000D01*
X15255000Y-7960000D02*
X15255000Y-8040000D01*
X15215000Y-8000000D02*
X15295000Y-8000000D01*
X12225052Y-7825052D02*
X12225052Y-7764948D01*
X12164948Y-7764948D01*
X12164948Y-7825052D01*
X12225052Y-7825052D01*
X12225052Y-8025052D02*
X12225052Y-7964948D01*
X12164948Y-7964948D01*
X12164948Y-8025052D01*
X12225052Y-8025052D01*
X12425052Y-7825052D02*
X12425052Y-7764948D01*
X12364948Y-7764948D01*
X12364948Y-7825052D01*
X12425052Y-7825052D01*
X12425052Y-8025052D02*
X12425052Y-7964948D01*
X12364948Y-7964948D01*
X12364948Y-8025052D01*
X12425052Y-8025052D01*
X12625052Y-7825052D02*
X12625052Y-7764948D01*
X12564948Y-7764948D01*
X12564948Y-7825052D01*
X12625052Y-7825052D01*
X12625052Y-8025052D02*
X12625052Y-7964948D01*
X12564948Y-7964948D01*
X12564948Y-8025052D01*
X12625052Y-8025052D01*
X12825052Y-7825052D02*
X12825052Y-7764948D01*
X12764948Y-7764948D01*
X12764948Y-7825052D01*
X12825052Y-7825052D01*
X12825052Y-8025052D02*
X12825052Y-7964948D01*
X12764948Y-7964948D01*
X12764948Y-8025052D01*
X12825052Y-8025052D01*
X13025052Y-7825052D02*
X13025052Y-7764948D01*
X12964948Y-7764948D01*
X12964948Y-7825052D01*
X13025052Y-7825052D01*
X13025052Y-8025052D02*
X13025052Y-7964948D01*
X12964948Y-7964948D01*
X12964948Y-8025052D01*
X13025052Y-8025052D01*
X12190000Y-8422500D02*
X12237500Y-8375000D01*
X12190000Y-8327500D01*
X12142500Y-8375000D01*
X12190000Y-8422500D01*
X12190000Y-8672500D02*
X12237500Y-8625000D01*
X12190000Y-8577500D01*
X12142500Y-8625000D01*
X12190000Y-8672500D01*
X12370000Y-8422500D02*
X12417500Y-8375000D01*
X12370000Y-8327500D01*
X12322500Y-8375000D01*
X12370000Y-8422500D01*
X12370000Y-8672500D02*
X12417500Y-8625000D01*
X12370000Y-8577500D01*
X12322500Y-8625000D01*
X12370000Y-8672500D01*
X12550000Y-8422500D02*
X12597500Y-8375000D01*
X12550000Y-8327500D01*
X12502500Y-8375000D01*
X12550000Y-8422500D01*
X12550000Y-8672500D02*
X12597500Y-8625000D01*
X12550000Y-8577500D01*
X12502500Y-8625000D01*
X12550000Y-8672500D01*
X12730000Y-8422500D02*
X12777500Y-8375000D01*
X12730000Y-8327500D01*
X12682500Y-8375000D01*
X12730000Y-8422500D01*
X12730000Y-8672500D02*
X12777500Y-8625000D01*
X12730000Y-8577500D01*
X12682500Y-8625000D01*
X12730000Y-8672500D01*
X12910000Y-8422500D02*
X12957500Y-8375000D01*
X12910000Y-8327500D01*
X12862500Y-8375000D01*
X12910000Y-8422500D01*
X12910000Y-8672500D02*
X12957500Y-8625000D01*
X12910000Y-8577500D01*
X12862500Y-8625000D01*
X12910000Y-8672500D01*
X13090000Y-8422500D02*
X13137500Y-8375000D01*
X13090000Y-8327500D01*
X13042500Y-8375000D01*
X13090000Y-8422500D01*
X13090000Y-8672500D02*
X13137500Y-8625000D01*
X13090000Y-8577500D01*
X13042500Y-8625000D01*
X13090000Y-8672500D01*
X13270000Y-8422500D02*
X13317500Y-8375000D01*
X13270000Y-8327500D01*
X13222500Y-8375000D01*
X13270000Y-8422500D01*
X13270000Y-8672500D02*
X13317500Y-8625000D01*
X13270000Y-8577500D01*
X13222500Y-8625000D01*
X13270000Y-8672500D01*
X13450000Y-8672500D02*
X13497500Y-8625000D01*
X13450000Y-8577500D01*
X13402500Y-8625000D01*
X13450000Y-8672500D01*
X13630000Y-8672500D02*
X13677500Y-8625000D01*
X13630000Y-8577500D01*
X13582500Y-8625000D01*
X13630000Y-8672500D01*
X13810000Y-8672500D02*
X13857500Y-8625000D01*
X13810000Y-8577500D01*
X13762500Y-8625000D01*
X13810000Y-8672500D01*
X13990000Y-8672500D02*
X14037500Y-8625000D01*
X13990000Y-8577500D01*
X13942500Y-8625000D01*
X13990000Y-8672500D01*
X14170000Y-8422500D02*
X14217500Y-8375000D01*
X14170000Y-8327500D01*
X14122500Y-8375000D01*
X14170000Y-8422500D01*
X14170000Y-8672500D02*
X14217500Y-8625000D01*
X14170000Y-8577500D01*
X14122500Y-8625000D01*
X14170000Y-8672500D01*
X14350000Y-8422500D02*
X14397500Y-8375000D01*
X14350000Y-8327500D01*
X14302500Y-8375000D01*
X14350000Y-8422500D01*
X14350000Y-8672500D02*
X14397500Y-8625000D01*
X14350000Y-8577500D01*
X14302500Y-8625000D01*
X14350000Y-8672500D01*
X14530000Y-8422500D02*
X14577500Y-8375000D01*
X14530000Y-8327500D01*
X14482500Y-8375000D01*
X14530000Y-8422500D01*
X14530000Y-8672500D02*
X14577500Y-8625000D01*
X14530000Y-8577500D01*
X14482500Y-8625000D01*
X14530000Y-8672500D01*
X14710000Y-8422500D02*
X14757500Y-8375000D01*
X14710000Y-8327500D01*
X14662500Y-8375000D01*
X14710000Y-8422500D01*
X14710000Y-8672500D02*
X14757500Y-8625000D01*
X14710000Y-8577500D01*
X14662500Y-8625000D01*
X14710000Y-8672500D01*
X14890000Y-8422500D02*
X14937500Y-8375000D01*
X14890000Y-8327500D01*
X14842500Y-8375000D01*
X14890000Y-8422500D01*
X14890000Y-8672500D02*
X14937500Y-8625000D01*
X14890000Y-8577500D01*
X14842500Y-8625000D01*
X14890000Y-8672500D01*
X15070000Y-8422500D02*
X15117500Y-8375000D01*
X15070000Y-8327500D01*
X15022500Y-8375000D01*
X15070000Y-8422500D01*
X15070000Y-8672500D02*
X15117500Y-8625000D01*
X15070000Y-8577500D01*
X15022500Y-8625000D01*
X15070000Y-8672500D01*
X15250000Y-8422500D02*
X15297500Y-8375000D01*
X15250000Y-8327500D01*
X15202500Y-8375000D01*
X15250000Y-8422500D01*
X15250000Y-8672500D02*
X15297500Y-8625000D01*
X15250000Y-8577500D01*
X15202500Y-8625000D01*
X15250000Y-8672500D01*
D11*
X12048277Y-10953984D02*
X12048277Y-10753984D01*
X12048277Y-10753984D02*
X12095896Y-10753984D01*
X12095896Y-10753984D02*
X12124467Y-10763508D01*
X12124467Y-10763508D02*
X12143515Y-10782555D01*
X12143515Y-10782555D02*
X12153039Y-10801603D01*
X12153039Y-10801603D02*
X12162562Y-10839698D01*
X12162562Y-10839698D02*
X12162562Y-10868270D01*
X12162562Y-10868270D02*
X12153039Y-10906365D01*
X12153039Y-10906365D02*
X12143515Y-10925412D01*
X12143515Y-10925412D02*
X12124467Y-10944460D01*
X12124467Y-10944460D02*
X12095896Y-10953984D01*
X12095896Y-10953984D02*
X12048277Y-10953984D01*
X12248277Y-10953984D02*
X12248277Y-10820650D01*
X12248277Y-10858746D02*
X12257801Y-10839698D01*
X12257801Y-10839698D02*
X12267324Y-10830174D01*
X12267324Y-10830174D02*
X12286372Y-10820650D01*
X12286372Y-10820650D02*
X12305420Y-10820650D01*
X12372086Y-10953984D02*
X12372086Y-10820650D01*
X12372086Y-10753984D02*
X12362562Y-10763508D01*
X12362562Y-10763508D02*
X12372086Y-10773031D01*
X12372086Y-10773031D02*
X12381610Y-10763508D01*
X12381610Y-10763508D02*
X12372086Y-10753984D01*
X12372086Y-10753984D02*
X12372086Y-10773031D01*
X12495896Y-10953984D02*
X12476848Y-10944460D01*
X12476848Y-10944460D02*
X12467324Y-10925412D01*
X12467324Y-10925412D02*
X12467324Y-10753984D01*
X12600658Y-10953984D02*
X12581610Y-10944460D01*
X12581610Y-10944460D02*
X12572086Y-10925412D01*
X12572086Y-10925412D02*
X12572086Y-10753984D01*
X12829229Y-10953984D02*
X12829229Y-10753984D01*
X12829229Y-10753984D02*
X12895896Y-10896841D01*
X12895896Y-10896841D02*
X12962562Y-10753984D01*
X12962562Y-10753984D02*
X12962562Y-10953984D01*
X13143515Y-10953984D02*
X13143515Y-10849222D01*
X13143515Y-10849222D02*
X13133991Y-10830174D01*
X13133991Y-10830174D02*
X13114943Y-10820650D01*
X13114943Y-10820650D02*
X13076848Y-10820650D01*
X13076848Y-10820650D02*
X13057801Y-10830174D01*
X13143515Y-10944460D02*
X13124467Y-10953984D01*
X13124467Y-10953984D02*
X13076848Y-10953984D01*
X13076848Y-10953984D02*
X13057801Y-10944460D01*
X13057801Y-10944460D02*
X13048277Y-10925412D01*
X13048277Y-10925412D02*
X13048277Y-10906365D01*
X13048277Y-10906365D02*
X13057801Y-10887317D01*
X13057801Y-10887317D02*
X13076848Y-10877793D01*
X13076848Y-10877793D02*
X13124467Y-10877793D01*
X13124467Y-10877793D02*
X13143515Y-10868270D01*
X13238753Y-10820650D02*
X13238753Y-11020650D01*
X13238753Y-10830174D02*
X13257801Y-10820650D01*
X13257801Y-10820650D02*
X13295896Y-10820650D01*
X13295896Y-10820650D02*
X13314943Y-10830174D01*
X13314943Y-10830174D02*
X13324467Y-10839698D01*
X13324467Y-10839698D02*
X13333991Y-10858746D01*
X13333991Y-10858746D02*
X13333991Y-10915889D01*
X13333991Y-10915889D02*
X13324467Y-10934936D01*
X13324467Y-10934936D02*
X13314943Y-10944460D01*
X13314943Y-10944460D02*
X13295896Y-10953984D01*
X13295896Y-10953984D02*
X13257801Y-10953984D01*
X13257801Y-10953984D02*
X13238753Y-10944460D01*
X13419705Y-10934936D02*
X13429229Y-10944460D01*
X13429229Y-10944460D02*
X13419705Y-10953984D01*
X13419705Y-10953984D02*
X13410182Y-10944460D01*
X13410182Y-10944460D02*
X13419705Y-10934936D01*
X13419705Y-10934936D02*
X13419705Y-10953984D01*
X13419705Y-10830174D02*
X13429229Y-10839698D01*
X13429229Y-10839698D02*
X13419705Y-10849222D01*
X13419705Y-10849222D02*
X13410182Y-10839698D01*
X13410182Y-10839698D02*
X13419705Y-10830174D01*
X13419705Y-10830174D02*
X13419705Y-10849222D01*
D12*
X11757500Y-11267500D02*
X11787500Y-11297500D01*
X11787500Y-11267500D02*
X11757500Y-11297500D01*
D11*
X12086372Y-11173984D02*
X12105420Y-11173984D01*
X12105420Y-11173984D02*
X12124467Y-11183508D01*
X12124467Y-11183508D02*
X12133991Y-11193031D01*
X12133991Y-11193031D02*
X12143515Y-11212079D01*
X12143515Y-11212079D02*
X12153039Y-11250174D01*
X12153039Y-11250174D02*
X12153039Y-11297793D01*
X12153039Y-11297793D02*
X12143515Y-11335888D01*
X12143515Y-11335888D02*
X12133991Y-11354936D01*
X12133991Y-11354936D02*
X12124467Y-11364460D01*
X12124467Y-11364460D02*
X12105420Y-11373984D01*
X12105420Y-11373984D02*
X12086372Y-11373984D01*
X12086372Y-11373984D02*
X12067324Y-11364460D01*
X12067324Y-11364460D02*
X12057801Y-11354936D01*
X12057801Y-11354936D02*
X12048277Y-11335888D01*
X12048277Y-11335888D02*
X12038753Y-11297793D01*
X12038753Y-11297793D02*
X12038753Y-11250174D01*
X12038753Y-11250174D02*
X12048277Y-11212079D01*
X12048277Y-11212079D02*
X12057801Y-11193031D01*
X12057801Y-11193031D02*
X12067324Y-11183508D01*
X12067324Y-11183508D02*
X12086372Y-11173984D01*
X12238753Y-11354936D02*
X12248277Y-11364460D01*
X12248277Y-11364460D02*
X12238753Y-11373984D01*
X12238753Y-11373984D02*
X12229229Y-11364460D01*
X12229229Y-11364460D02*
X12238753Y-11354936D01*
X12238753Y-11354936D02*
X12238753Y-11373984D01*
X12314943Y-11173984D02*
X12438753Y-11173984D01*
X12438753Y-11173984D02*
X12372086Y-11250174D01*
X12372086Y-11250174D02*
X12400658Y-11250174D01*
X12400658Y-11250174D02*
X12419705Y-11259698D01*
X12419705Y-11259698D02*
X12429229Y-11269222D01*
X12429229Y-11269222D02*
X12438753Y-11288269D01*
X12438753Y-11288269D02*
X12438753Y-11335888D01*
X12438753Y-11335888D02*
X12429229Y-11354936D01*
X12429229Y-11354936D02*
X12419705Y-11364460D01*
X12419705Y-11364460D02*
X12400658Y-11373984D01*
X12400658Y-11373984D02*
X12343515Y-11373984D01*
X12343515Y-11373984D02*
X12324467Y-11364460D01*
X12324467Y-11364460D02*
X12314943Y-11354936D01*
X12562562Y-11173984D02*
X12581610Y-11173984D01*
X12581610Y-11173984D02*
X12600658Y-11183508D01*
X12600658Y-11183508D02*
X12610182Y-11193031D01*
X12610182Y-11193031D02*
X12619705Y-11212079D01*
X12619705Y-11212079D02*
X12629229Y-11250174D01*
X12629229Y-11250174D02*
X12629229Y-11297793D01*
X12629229Y-11297793D02*
X12619705Y-11335888D01*
X12619705Y-11335888D02*
X12610182Y-11354936D01*
X12610182Y-11354936D02*
X12600658Y-11364460D01*
X12600658Y-11364460D02*
X12581610Y-11373984D01*
X12581610Y-11373984D02*
X12562562Y-11373984D01*
X12562562Y-11373984D02*
X12543515Y-11364460D01*
X12543515Y-11364460D02*
X12533991Y-11354936D01*
X12533991Y-11354936D02*
X12524467Y-11335888D01*
X12524467Y-11335888D02*
X12514943Y-11297793D01*
X12514943Y-11297793D02*
X12514943Y-11250174D01*
X12514943Y-11250174D02*
X12524467Y-11212079D01*
X12524467Y-11212079D02*
X12533991Y-11193031D01*
X12533991Y-11193031D02*
X12543515Y-11183508D01*
X12543515Y-11183508D02*
X12562562Y-11173984D01*
X12753039Y-11173984D02*
X12772086Y-11173984D01*
X12772086Y-11173984D02*
X12791134Y-11183508D01*
X12791134Y-11183508D02*
X12800658Y-11193031D01*
X12800658Y-11193031D02*
X12810182Y-11212079D01*
X12810182Y-11212079D02*
X12819705Y-11250174D01*
X12819705Y-11250174D02*
X12819705Y-11297793D01*
X12819705Y-11297793D02*
X12810182Y-11335888D01*
X12810182Y-11335888D02*
X12800658Y-11354936D01*
X12800658Y-11354936D02*
X12791134Y-11364460D01*
X12791134Y-11364460D02*
X12772086Y-11373984D01*
X12772086Y-11373984D02*
X12753039Y-11373984D01*
X12753039Y-11373984D02*
X12733991Y-11364460D01*
X12733991Y-11364460D02*
X12724467Y-11354936D01*
X12724467Y-11354936D02*
X12714943Y-11335888D01*
X12714943Y-11335888D02*
X12705420Y-11297793D01*
X12705420Y-11297793D02*
X12705420Y-11250174D01*
X12705420Y-11250174D02*
X12714943Y-11212079D01*
X12714943Y-11212079D02*
X12724467Y-11193031D01*
X12724467Y-11193031D02*
X12733991Y-11183508D01*
X12733991Y-11183508D02*
X12753039Y-11173984D01*
X12905420Y-11373984D02*
X12905420Y-11240650D01*
X12905420Y-11259698D02*
X12914943Y-11250174D01*
X12914943Y-11250174D02*
X12933991Y-11240650D01*
X12933991Y-11240650D02*
X12962563Y-11240650D01*
X12962563Y-11240650D02*
X12981610Y-11250174D01*
X12981610Y-11250174D02*
X12991134Y-11269222D01*
X12991134Y-11269222D02*
X12991134Y-11373984D01*
X12991134Y-11269222D02*
X13000658Y-11250174D01*
X13000658Y-11250174D02*
X13019705Y-11240650D01*
X13019705Y-11240650D02*
X13048277Y-11240650D01*
X13048277Y-11240650D02*
X13067324Y-11250174D01*
X13067324Y-11250174D02*
X13076848Y-11269222D01*
X13076848Y-11269222D02*
X13076848Y-11373984D01*
X13172086Y-11373984D02*
X13172086Y-11240650D01*
X13172086Y-11259698D02*
X13181610Y-11250174D01*
X13181610Y-11250174D02*
X13200658Y-11240650D01*
X13200658Y-11240650D02*
X13229229Y-11240650D01*
X13229229Y-11240650D02*
X13248277Y-11250174D01*
X13248277Y-11250174D02*
X13257801Y-11269222D01*
X13257801Y-11269222D02*
X13257801Y-11373984D01*
X13257801Y-11269222D02*
X13267324Y-11250174D01*
X13267324Y-11250174D02*
X13286372Y-11240650D01*
X13286372Y-11240650D02*
X13314943Y-11240650D01*
X13314943Y-11240650D02*
X13333991Y-11250174D01*
X13333991Y-11250174D02*
X13343515Y-11269222D01*
X13343515Y-11269222D02*
X13343515Y-11373984D01*
X13733991Y-11164460D02*
X13562563Y-11421603D01*
X13991134Y-11173984D02*
X14010182Y-11173984D01*
X14010182Y-11173984D02*
X14029229Y-11183508D01*
X14029229Y-11183508D02*
X14038753Y-11193031D01*
X14038753Y-11193031D02*
X14048277Y-11212079D01*
X14048277Y-11212079D02*
X14057801Y-11250174D01*
X14057801Y-11250174D02*
X14057801Y-11297793D01*
X14057801Y-11297793D02*
X14048277Y-11335888D01*
X14048277Y-11335888D02*
X14038753Y-11354936D01*
X14038753Y-11354936D02*
X14029229Y-11364460D01*
X14029229Y-11364460D02*
X14010182Y-11373984D01*
X14010182Y-11373984D02*
X13991134Y-11373984D01*
X13991134Y-11373984D02*
X13972086Y-11364460D01*
X13972086Y-11364460D02*
X13962563Y-11354936D01*
X13962563Y-11354936D02*
X13953039Y-11335888D01*
X13953039Y-11335888D02*
X13943515Y-11297793D01*
X13943515Y-11297793D02*
X13943515Y-11250174D01*
X13943515Y-11250174D02*
X13953039Y-11212079D01*
X13953039Y-11212079D02*
X13962563Y-11193031D01*
X13962563Y-11193031D02*
X13972086Y-11183508D01*
X13972086Y-11183508D02*
X13991134Y-11173984D01*
X14143515Y-11354936D02*
X14153039Y-11364460D01*
X14153039Y-11364460D02*
X14143515Y-11373984D01*
X14143515Y-11373984D02*
X14133991Y-11364460D01*
X14133991Y-11364460D02*
X14143515Y-11354936D01*
X14143515Y-11354936D02*
X14143515Y-11373984D01*
X14276848Y-11173984D02*
X14295896Y-11173984D01*
X14295896Y-11173984D02*
X14314944Y-11183508D01*
X14314944Y-11183508D02*
X14324467Y-11193031D01*
X14324467Y-11193031D02*
X14333991Y-11212079D01*
X14333991Y-11212079D02*
X14343515Y-11250174D01*
X14343515Y-11250174D02*
X14343515Y-11297793D01*
X14343515Y-11297793D02*
X14333991Y-11335888D01*
X14333991Y-11335888D02*
X14324467Y-11354936D01*
X14324467Y-11354936D02*
X14314944Y-11364460D01*
X14314944Y-11364460D02*
X14295896Y-11373984D01*
X14295896Y-11373984D02*
X14276848Y-11373984D01*
X14276848Y-11373984D02*
X14257801Y-11364460D01*
X14257801Y-11364460D02*
X14248277Y-11354936D01*
X14248277Y-11354936D02*
X14238753Y-11335888D01*
X14238753Y-11335888D02*
X14229229Y-11297793D01*
X14229229Y-11297793D02*
X14229229Y-11250174D01*
X14229229Y-11250174D02*
X14238753Y-11212079D01*
X14238753Y-11212079D02*
X14248277Y-11193031D01*
X14248277Y-11193031D02*
X14257801Y-11183508D01*
X14257801Y-11183508D02*
X14276848Y-11173984D01*
X14533991Y-11373984D02*
X14419706Y-11373984D01*
X14476848Y-11373984D02*
X14476848Y-11173984D01*
X14476848Y-11173984D02*
X14457801Y-11202555D01*
X14457801Y-11202555D02*
X14438753Y-11221603D01*
X14438753Y-11221603D02*
X14419706Y-11231127D01*
X14724467Y-11373984D02*
X14610182Y-11373984D01*
X14667325Y-11373984D02*
X14667325Y-11173984D01*
X14667325Y-11173984D02*
X14648277Y-11202555D01*
X14648277Y-11202555D02*
X14629229Y-11221603D01*
X14629229Y-11221603D02*
X14610182Y-11231127D01*
X14838753Y-11259698D02*
X14819706Y-11250174D01*
X14819706Y-11250174D02*
X14810182Y-11240650D01*
X14810182Y-11240650D02*
X14800658Y-11221603D01*
X14800658Y-11221603D02*
X14800658Y-11212079D01*
X14800658Y-11212079D02*
X14810182Y-11193031D01*
X14810182Y-11193031D02*
X14819706Y-11183508D01*
X14819706Y-11183508D02*
X14838753Y-11173984D01*
X14838753Y-11173984D02*
X14876848Y-11173984D01*
X14876848Y-11173984D02*
X14895896Y-11183508D01*
X14895896Y-11183508D02*
X14905420Y-11193031D01*
X14905420Y-11193031D02*
X14914944Y-11212079D01*
X14914944Y-11212079D02*
X14914944Y-11221603D01*
X14914944Y-11221603D02*
X14905420Y-11240650D01*
X14905420Y-11240650D02*
X14895896Y-11250174D01*
X14895896Y-11250174D02*
X14876848Y-11259698D01*
X14876848Y-11259698D02*
X14838753Y-11259698D01*
X14838753Y-11259698D02*
X14819706Y-11269222D01*
X14819706Y-11269222D02*
X14810182Y-11278746D01*
X14810182Y-11278746D02*
X14800658Y-11297793D01*
X14800658Y-11297793D02*
X14800658Y-11335888D01*
X14800658Y-11335888D02*
X14810182Y-11354936D01*
X14810182Y-11354936D02*
X14819706Y-11364460D01*
X14819706Y-11364460D02*
X14838753Y-11373984D01*
X14838753Y-11373984D02*
X14876848Y-11373984D01*
X14876848Y-11373984D02*
X14895896Y-11364460D01*
X14895896Y-11364460D02*
X14905420Y-11354936D01*
X14905420Y-11354936D02*
X14914944Y-11335888D01*
X14914944Y-11335888D02*
X14914944Y-11297793D01*
X14914944Y-11297793D02*
X14905420Y-11278746D01*
X14905420Y-11278746D02*
X14895896Y-11269222D01*
X14895896Y-11269222D02*
X14876848Y-11259698D01*
X14991134Y-11173984D02*
X14991134Y-11212079D01*
X15067325Y-11173984D02*
X15067325Y-11212079D01*
X15362563Y-11450174D02*
X15353039Y-11440650D01*
X15353039Y-11440650D02*
X15333991Y-11412079D01*
X15333991Y-11412079D02*
X15324468Y-11393031D01*
X15324468Y-11393031D02*
X15314944Y-11364460D01*
X15314944Y-11364460D02*
X15305420Y-11316841D01*
X15305420Y-11316841D02*
X15305420Y-11278746D01*
X15305420Y-11278746D02*
X15314944Y-11231127D01*
X15314944Y-11231127D02*
X15324468Y-11202555D01*
X15324468Y-11202555D02*
X15333991Y-11183508D01*
X15333991Y-11183508D02*
X15353039Y-11154936D01*
X15353039Y-11154936D02*
X15362563Y-11145412D01*
X15448277Y-11373984D02*
X15486372Y-11373984D01*
X15486372Y-11373984D02*
X15505420Y-11364460D01*
X15505420Y-11364460D02*
X15514944Y-11354936D01*
X15514944Y-11354936D02*
X15533991Y-11326365D01*
X15533991Y-11326365D02*
X15543515Y-11288269D01*
X15543515Y-11288269D02*
X15543515Y-11212079D01*
X15543515Y-11212079D02*
X15533991Y-11193031D01*
X15533991Y-11193031D02*
X15524468Y-11183508D01*
X15524468Y-11183508D02*
X15505420Y-11173984D01*
X15505420Y-11173984D02*
X15467325Y-11173984D01*
X15467325Y-11173984D02*
X15448277Y-11183508D01*
X15448277Y-11183508D02*
X15438753Y-11193031D01*
X15438753Y-11193031D02*
X15429229Y-11212079D01*
X15429229Y-11212079D02*
X15429229Y-11259698D01*
X15429229Y-11259698D02*
X15438753Y-11278746D01*
X15438753Y-11278746D02*
X15448277Y-11288269D01*
X15448277Y-11288269D02*
X15467325Y-11297793D01*
X15467325Y-11297793D02*
X15505420Y-11297793D01*
X15505420Y-11297793D02*
X15524468Y-11288269D01*
X15524468Y-11288269D02*
X15533991Y-11278746D01*
X15533991Y-11278746D02*
X15543515Y-11259698D01*
X15781610Y-11373984D02*
X15781610Y-11173984D01*
X15867325Y-11373984D02*
X15867325Y-11269222D01*
X15867325Y-11269222D02*
X15857801Y-11250174D01*
X15857801Y-11250174D02*
X15838753Y-11240650D01*
X15838753Y-11240650D02*
X15810182Y-11240650D01*
X15810182Y-11240650D02*
X15791134Y-11250174D01*
X15791134Y-11250174D02*
X15781610Y-11259698D01*
X15991134Y-11373984D02*
X15972087Y-11364460D01*
X15972087Y-11364460D02*
X15962563Y-11354936D01*
X15962563Y-11354936D02*
X15953039Y-11335888D01*
X15953039Y-11335888D02*
X15953039Y-11278746D01*
X15953039Y-11278746D02*
X15962563Y-11259698D01*
X15962563Y-11259698D02*
X15972087Y-11250174D01*
X15972087Y-11250174D02*
X15991134Y-11240650D01*
X15991134Y-11240650D02*
X16019706Y-11240650D01*
X16019706Y-11240650D02*
X16038753Y-11250174D01*
X16038753Y-11250174D02*
X16048277Y-11259698D01*
X16048277Y-11259698D02*
X16057801Y-11278746D01*
X16057801Y-11278746D02*
X16057801Y-11335888D01*
X16057801Y-11335888D02*
X16048277Y-11354936D01*
X16048277Y-11354936D02*
X16038753Y-11364460D01*
X16038753Y-11364460D02*
X16019706Y-11373984D01*
X16019706Y-11373984D02*
X15991134Y-11373984D01*
X16172087Y-11373984D02*
X16153039Y-11364460D01*
X16153039Y-11364460D02*
X16143515Y-11345412D01*
X16143515Y-11345412D02*
X16143515Y-11173984D01*
X16324468Y-11364460D02*
X16305420Y-11373984D01*
X16305420Y-11373984D02*
X16267325Y-11373984D01*
X16267325Y-11373984D02*
X16248277Y-11364460D01*
X16248277Y-11364460D02*
X16238753Y-11345412D01*
X16238753Y-11345412D02*
X16238753Y-11269222D01*
X16238753Y-11269222D02*
X16248277Y-11250174D01*
X16248277Y-11250174D02*
X16267325Y-11240650D01*
X16267325Y-11240650D02*
X16305420Y-11240650D01*
X16305420Y-11240650D02*
X16324468Y-11250174D01*
X16324468Y-11250174D02*
X16333991Y-11269222D01*
X16333991Y-11269222D02*
X16333991Y-11288269D01*
X16333991Y-11288269D02*
X16238753Y-11307317D01*
X16410182Y-11364460D02*
X16429230Y-11373984D01*
X16429230Y-11373984D02*
X16467325Y-11373984D01*
X16467325Y-11373984D02*
X16486372Y-11364460D01*
X16486372Y-11364460D02*
X16495896Y-11345412D01*
X16495896Y-11345412D02*
X16495896Y-11335888D01*
X16495896Y-11335888D02*
X16486372Y-11316841D01*
X16486372Y-11316841D02*
X16467325Y-11307317D01*
X16467325Y-11307317D02*
X16438753Y-11307317D01*
X16438753Y-11307317D02*
X16419706Y-11297793D01*
X16419706Y-11297793D02*
X16410182Y-11278746D01*
X16410182Y-11278746D02*
X16410182Y-11269222D01*
X16410182Y-11269222D02*
X16419706Y-11250174D01*
X16419706Y-11250174D02*
X16438753Y-11240650D01*
X16438753Y-11240650D02*
X16467325Y-11240650D01*
X16467325Y-11240650D02*
X16486372Y-11250174D01*
X16562563Y-11450174D02*
X16572087Y-11440650D01*
X16572087Y-11440650D02*
X16591134Y-11412079D01*
X16591134Y-11412079D02*
X16600658Y-11393031D01*
X16600658Y-11393031D02*
X16610182Y-11364460D01*
X16610182Y-11364460D02*
X16619706Y-11316841D01*
X16619706Y-11316841D02*
X16619706Y-11278746D01*
X16619706Y-11278746D02*
X16610182Y-11231127D01*
X16610182Y-11231127D02*
X16600658Y-11202555D01*
X16600658Y-11202555D02*
X16591134Y-11183508D01*
X16591134Y-11183508D02*
X16572087Y-11154936D01*
X16572087Y-11154936D02*
X16562563Y-11145412D01*
D12*
X11787500Y-11546500D02*
G75*
G02*
X11747500Y-11546500I-20000J0D01*
G01*
X11747500Y-11546500D02*
G75*
G02*
X11787500Y-11546500I20000J0D01*
G01*
D11*
X12086372Y-11437984D02*
X12105420Y-11437984D01*
X12105420Y-11437984D02*
X12124467Y-11447508D01*
X12124467Y-11447508D02*
X12133991Y-11457031D01*
X12133991Y-11457031D02*
X12143515Y-11476079D01*
X12143515Y-11476079D02*
X12153039Y-11514174D01*
X12153039Y-11514174D02*
X12153039Y-11561793D01*
X12153039Y-11561793D02*
X12143515Y-11599888D01*
X12143515Y-11599888D02*
X12133991Y-11618936D01*
X12133991Y-11618936D02*
X12124467Y-11628460D01*
X12124467Y-11628460D02*
X12105420Y-11637984D01*
X12105420Y-11637984D02*
X12086372Y-11637984D01*
X12086372Y-11637984D02*
X12067324Y-11628460D01*
X12067324Y-11628460D02*
X12057801Y-11618936D01*
X12057801Y-11618936D02*
X12048277Y-11599888D01*
X12048277Y-11599888D02*
X12038753Y-11561793D01*
X12038753Y-11561793D02*
X12038753Y-11514174D01*
X12038753Y-11514174D02*
X12048277Y-11476079D01*
X12048277Y-11476079D02*
X12057801Y-11457031D01*
X12057801Y-11457031D02*
X12067324Y-11447508D01*
X12067324Y-11447508D02*
X12086372Y-11437984D01*
X12238753Y-11618936D02*
X12248277Y-11628460D01*
X12248277Y-11628460D02*
X12238753Y-11637984D01*
X12238753Y-11637984D02*
X12229229Y-11628460D01*
X12229229Y-11628460D02*
X12238753Y-11618936D01*
X12238753Y-11618936D02*
X12238753Y-11637984D01*
X12419705Y-11504650D02*
X12419705Y-11637984D01*
X12372086Y-11428460D02*
X12324467Y-11571317D01*
X12324467Y-11571317D02*
X12448277Y-11571317D01*
X12562562Y-11437984D02*
X12581610Y-11437984D01*
X12581610Y-11437984D02*
X12600658Y-11447508D01*
X12600658Y-11447508D02*
X12610182Y-11457031D01*
X12610182Y-11457031D02*
X12619705Y-11476079D01*
X12619705Y-11476079D02*
X12629229Y-11514174D01*
X12629229Y-11514174D02*
X12629229Y-11561793D01*
X12629229Y-11561793D02*
X12619705Y-11599888D01*
X12619705Y-11599888D02*
X12610182Y-11618936D01*
X12610182Y-11618936D02*
X12600658Y-11628460D01*
X12600658Y-11628460D02*
X12581610Y-11637984D01*
X12581610Y-11637984D02*
X12562562Y-11637984D01*
X12562562Y-11637984D02*
X12543515Y-11628460D01*
X12543515Y-11628460D02*
X12533991Y-11618936D01*
X12533991Y-11618936D02*
X12524467Y-11599888D01*
X12524467Y-11599888D02*
X12514943Y-11561793D01*
X12514943Y-11561793D02*
X12514943Y-11514174D01*
X12514943Y-11514174D02*
X12524467Y-11476079D01*
X12524467Y-11476079D02*
X12533991Y-11457031D01*
X12533991Y-11457031D02*
X12543515Y-11447508D01*
X12543515Y-11447508D02*
X12562562Y-11437984D01*
X12753039Y-11437984D02*
X12772086Y-11437984D01*
X12772086Y-11437984D02*
X12791134Y-11447508D01*
X12791134Y-11447508D02*
X12800658Y-11457031D01*
X12800658Y-11457031D02*
X12810182Y-11476079D01*
X12810182Y-11476079D02*
X12819705Y-11514174D01*
X12819705Y-11514174D02*
X12819705Y-11561793D01*
X12819705Y-11561793D02*
X12810182Y-11599888D01*
X12810182Y-11599888D02*
X12800658Y-11618936D01*
X12800658Y-11618936D02*
X12791134Y-11628460D01*
X12791134Y-11628460D02*
X12772086Y-11637984D01*
X12772086Y-11637984D02*
X12753039Y-11637984D01*
X12753039Y-11637984D02*
X12733991Y-11628460D01*
X12733991Y-11628460D02*
X12724467Y-11618936D01*
X12724467Y-11618936D02*
X12714943Y-11599888D01*
X12714943Y-11599888D02*
X12705420Y-11561793D01*
X12705420Y-11561793D02*
X12705420Y-11514174D01*
X12705420Y-11514174D02*
X12714943Y-11476079D01*
X12714943Y-11476079D02*
X12724467Y-11457031D01*
X12724467Y-11457031D02*
X12733991Y-11447508D01*
X12733991Y-11447508D02*
X12753039Y-11437984D01*
X12905420Y-11637984D02*
X12905420Y-11504650D01*
X12905420Y-11523698D02*
X12914943Y-11514174D01*
X12914943Y-11514174D02*
X12933991Y-11504650D01*
X12933991Y-11504650D02*
X12962563Y-11504650D01*
X12962563Y-11504650D02*
X12981610Y-11514174D01*
X12981610Y-11514174D02*
X12991134Y-11533222D01*
X12991134Y-11533222D02*
X12991134Y-11637984D01*
X12991134Y-11533222D02*
X13000658Y-11514174D01*
X13000658Y-11514174D02*
X13019705Y-11504650D01*
X13019705Y-11504650D02*
X13048277Y-11504650D01*
X13048277Y-11504650D02*
X13067324Y-11514174D01*
X13067324Y-11514174D02*
X13076848Y-11533222D01*
X13076848Y-11533222D02*
X13076848Y-11637984D01*
X13172086Y-11637984D02*
X13172086Y-11504650D01*
X13172086Y-11523698D02*
X13181610Y-11514174D01*
X13181610Y-11514174D02*
X13200658Y-11504650D01*
X13200658Y-11504650D02*
X13229229Y-11504650D01*
X13229229Y-11504650D02*
X13248277Y-11514174D01*
X13248277Y-11514174D02*
X13257801Y-11533222D01*
X13257801Y-11533222D02*
X13257801Y-11637984D01*
X13257801Y-11533222D02*
X13267324Y-11514174D01*
X13267324Y-11514174D02*
X13286372Y-11504650D01*
X13286372Y-11504650D02*
X13314943Y-11504650D01*
X13314943Y-11504650D02*
X13333991Y-11514174D01*
X13333991Y-11514174D02*
X13343515Y-11533222D01*
X13343515Y-11533222D02*
X13343515Y-11637984D01*
X13733991Y-11428460D02*
X13562563Y-11685603D01*
X13991134Y-11437984D02*
X14010182Y-11437984D01*
X14010182Y-11437984D02*
X14029229Y-11447508D01*
X14029229Y-11447508D02*
X14038753Y-11457031D01*
X14038753Y-11457031D02*
X14048277Y-11476079D01*
X14048277Y-11476079D02*
X14057801Y-11514174D01*
X14057801Y-11514174D02*
X14057801Y-11561793D01*
X14057801Y-11561793D02*
X14048277Y-11599888D01*
X14048277Y-11599888D02*
X14038753Y-11618936D01*
X14038753Y-11618936D02*
X14029229Y-11628460D01*
X14029229Y-11628460D02*
X14010182Y-11637984D01*
X14010182Y-11637984D02*
X13991134Y-11637984D01*
X13991134Y-11637984D02*
X13972086Y-11628460D01*
X13972086Y-11628460D02*
X13962563Y-11618936D01*
X13962563Y-11618936D02*
X13953039Y-11599888D01*
X13953039Y-11599888D02*
X13943515Y-11561793D01*
X13943515Y-11561793D02*
X13943515Y-11514174D01*
X13943515Y-11514174D02*
X13953039Y-11476079D01*
X13953039Y-11476079D02*
X13962563Y-11457031D01*
X13962563Y-11457031D02*
X13972086Y-11447508D01*
X13972086Y-11447508D02*
X13991134Y-11437984D01*
X14143515Y-11618936D02*
X14153039Y-11628460D01*
X14153039Y-11628460D02*
X14143515Y-11637984D01*
X14143515Y-11637984D02*
X14133991Y-11628460D01*
X14133991Y-11628460D02*
X14143515Y-11618936D01*
X14143515Y-11618936D02*
X14143515Y-11637984D01*
X14276848Y-11437984D02*
X14295896Y-11437984D01*
X14295896Y-11437984D02*
X14314944Y-11447508D01*
X14314944Y-11447508D02*
X14324467Y-11457031D01*
X14324467Y-11457031D02*
X14333991Y-11476079D01*
X14333991Y-11476079D02*
X14343515Y-11514174D01*
X14343515Y-11514174D02*
X14343515Y-11561793D01*
X14343515Y-11561793D02*
X14333991Y-11599888D01*
X14333991Y-11599888D02*
X14324467Y-11618936D01*
X14324467Y-11618936D02*
X14314944Y-11628460D01*
X14314944Y-11628460D02*
X14295896Y-11637984D01*
X14295896Y-11637984D02*
X14276848Y-11637984D01*
X14276848Y-11637984D02*
X14257801Y-11628460D01*
X14257801Y-11628460D02*
X14248277Y-11618936D01*
X14248277Y-11618936D02*
X14238753Y-11599888D01*
X14238753Y-11599888D02*
X14229229Y-11561793D01*
X14229229Y-11561793D02*
X14229229Y-11514174D01*
X14229229Y-11514174D02*
X14238753Y-11476079D01*
X14238753Y-11476079D02*
X14248277Y-11457031D01*
X14248277Y-11457031D02*
X14257801Y-11447508D01*
X14257801Y-11447508D02*
X14276848Y-11437984D01*
X14533991Y-11637984D02*
X14419706Y-11637984D01*
X14476848Y-11637984D02*
X14476848Y-11437984D01*
X14476848Y-11437984D02*
X14457801Y-11466555D01*
X14457801Y-11466555D02*
X14438753Y-11485603D01*
X14438753Y-11485603D02*
X14419706Y-11495127D01*
X14714944Y-11437984D02*
X14619706Y-11437984D01*
X14619706Y-11437984D02*
X14610182Y-11533222D01*
X14610182Y-11533222D02*
X14619706Y-11523698D01*
X14619706Y-11523698D02*
X14638753Y-11514174D01*
X14638753Y-11514174D02*
X14686372Y-11514174D01*
X14686372Y-11514174D02*
X14705420Y-11523698D01*
X14705420Y-11523698D02*
X14714944Y-11533222D01*
X14714944Y-11533222D02*
X14724467Y-11552269D01*
X14724467Y-11552269D02*
X14724467Y-11599888D01*
X14724467Y-11599888D02*
X14714944Y-11618936D01*
X14714944Y-11618936D02*
X14705420Y-11628460D01*
X14705420Y-11628460D02*
X14686372Y-11637984D01*
X14686372Y-11637984D02*
X14638753Y-11637984D01*
X14638753Y-11637984D02*
X14619706Y-11628460D01*
X14619706Y-11628460D02*
X14610182Y-11618936D01*
X14791134Y-11437984D02*
X14924467Y-11437984D01*
X14924467Y-11437984D02*
X14838753Y-11637984D01*
X14991134Y-11437984D02*
X14991134Y-11476079D01*
X15067325Y-11437984D02*
X15067325Y-11476079D01*
X15362563Y-11714174D02*
X15353039Y-11704650D01*
X15353039Y-11704650D02*
X15333991Y-11676079D01*
X15333991Y-11676079D02*
X15324468Y-11657031D01*
X15324468Y-11657031D02*
X15314944Y-11628460D01*
X15314944Y-11628460D02*
X15305420Y-11580841D01*
X15305420Y-11580841D02*
X15305420Y-11542746D01*
X15305420Y-11542746D02*
X15314944Y-11495127D01*
X15314944Y-11495127D02*
X15324468Y-11466555D01*
X15324468Y-11466555D02*
X15333991Y-11447508D01*
X15333991Y-11447508D02*
X15353039Y-11418936D01*
X15353039Y-11418936D02*
X15362563Y-11409412D01*
X15429229Y-11457031D02*
X15438753Y-11447508D01*
X15438753Y-11447508D02*
X15457801Y-11437984D01*
X15457801Y-11437984D02*
X15505420Y-11437984D01*
X15505420Y-11437984D02*
X15524468Y-11447508D01*
X15524468Y-11447508D02*
X15533991Y-11457031D01*
X15533991Y-11457031D02*
X15543515Y-11476079D01*
X15543515Y-11476079D02*
X15543515Y-11495127D01*
X15543515Y-11495127D02*
X15533991Y-11523698D01*
X15533991Y-11523698D02*
X15419706Y-11637984D01*
X15419706Y-11637984D02*
X15543515Y-11637984D01*
X15781610Y-11637984D02*
X15781610Y-11437984D01*
X15867325Y-11637984D02*
X15867325Y-11533222D01*
X15867325Y-11533222D02*
X15857801Y-11514174D01*
X15857801Y-11514174D02*
X15838753Y-11504650D01*
X15838753Y-11504650D02*
X15810182Y-11504650D01*
X15810182Y-11504650D02*
X15791134Y-11514174D01*
X15791134Y-11514174D02*
X15781610Y-11523698D01*
X15991134Y-11637984D02*
X15972087Y-11628460D01*
X15972087Y-11628460D02*
X15962563Y-11618936D01*
X15962563Y-11618936D02*
X15953039Y-11599888D01*
X15953039Y-11599888D02*
X15953039Y-11542746D01*
X15953039Y-11542746D02*
X15962563Y-11523698D01*
X15962563Y-11523698D02*
X15972087Y-11514174D01*
X15972087Y-11514174D02*
X15991134Y-11504650D01*
X15991134Y-11504650D02*
X16019706Y-11504650D01*
X16019706Y-11504650D02*
X16038753Y-11514174D01*
X16038753Y-11514174D02*
X16048277Y-11523698D01*
X16048277Y-11523698D02*
X16057801Y-11542746D01*
X16057801Y-11542746D02*
X16057801Y-11599888D01*
X16057801Y-11599888D02*
X16048277Y-11618936D01*
X16048277Y-11618936D02*
X16038753Y-11628460D01*
X16038753Y-11628460D02*
X16019706Y-11637984D01*
X16019706Y-11637984D02*
X15991134Y-11637984D01*
X16172087Y-11637984D02*
X16153039Y-11628460D01*
X16153039Y-11628460D02*
X16143515Y-11609412D01*
X16143515Y-11609412D02*
X16143515Y-11437984D01*
X16324468Y-11628460D02*
X16305420Y-11637984D01*
X16305420Y-11637984D02*
X16267325Y-11637984D01*
X16267325Y-11637984D02*
X16248277Y-11628460D01*
X16248277Y-11628460D02*
X16238753Y-11609412D01*
X16238753Y-11609412D02*
X16238753Y-11533222D01*
X16238753Y-11533222D02*
X16248277Y-11514174D01*
X16248277Y-11514174D02*
X16267325Y-11504650D01*
X16267325Y-11504650D02*
X16305420Y-11504650D01*
X16305420Y-11504650D02*
X16324468Y-11514174D01*
X16324468Y-11514174D02*
X16333991Y-11533222D01*
X16333991Y-11533222D02*
X16333991Y-11552269D01*
X16333991Y-11552269D02*
X16238753Y-11571317D01*
X16410182Y-11628460D02*
X16429230Y-11637984D01*
X16429230Y-11637984D02*
X16467325Y-11637984D01*
X16467325Y-11637984D02*
X16486372Y-11628460D01*
X16486372Y-11628460D02*
X16495896Y-11609412D01*
X16495896Y-11609412D02*
X16495896Y-11599888D01*
X16495896Y-11599888D02*
X16486372Y-11580841D01*
X16486372Y-11580841D02*
X16467325Y-11571317D01*
X16467325Y-11571317D02*
X16438753Y-11571317D01*
X16438753Y-11571317D02*
X16419706Y-11561793D01*
X16419706Y-11561793D02*
X16410182Y-11542746D01*
X16410182Y-11542746D02*
X16410182Y-11533222D01*
X16410182Y-11533222D02*
X16419706Y-11514174D01*
X16419706Y-11514174D02*
X16438753Y-11504650D01*
X16438753Y-11504650D02*
X16467325Y-11504650D01*
X16467325Y-11504650D02*
X16486372Y-11514174D01*
X16562563Y-11714174D02*
X16572087Y-11704650D01*
X16572087Y-11704650D02*
X16591134Y-11676079D01*
X16591134Y-11676079D02*
X16600658Y-11657031D01*
X16600658Y-11657031D02*
X16610182Y-11628460D01*
X16610182Y-11628460D02*
X16619706Y-11580841D01*
X16619706Y-11580841D02*
X16619706Y-11542746D01*
X16619706Y-11542746D02*
X16610182Y-11495127D01*
X16610182Y-11495127D02*
X16600658Y-11466555D01*
X16600658Y-11466555D02*
X16591134Y-11447508D01*
X16591134Y-11447508D02*
X16572087Y-11418936D01*
X16572087Y-11418936D02*
X16562563Y-11409412D01*
D12*
X11747500Y-11770500D02*
X11747500Y-11850500D01*
X11707500Y-11810500D02*
X11787500Y-11810500D01*
D11*
X12086372Y-11701984D02*
X12105420Y-11701984D01*
X12105420Y-11701984D02*
X12124467Y-11711508D01*
X12124467Y-11711508D02*
X12133991Y-11721031D01*
X12133991Y-11721031D02*
X12143515Y-11740079D01*
X12143515Y-11740079D02*
X12153039Y-11778174D01*
X12153039Y-11778174D02*
X12153039Y-11825793D01*
X12153039Y-11825793D02*
X12143515Y-11863888D01*
X12143515Y-11863888D02*
X12133991Y-11882936D01*
X12133991Y-11882936D02*
X12124467Y-11892460D01*
X12124467Y-11892460D02*
X12105420Y-11901984D01*
X12105420Y-11901984D02*
X12086372Y-11901984D01*
X12086372Y-11901984D02*
X12067324Y-11892460D01*
X12067324Y-11892460D02*
X12057801Y-11882936D01*
X12057801Y-11882936D02*
X12048277Y-11863888D01*
X12048277Y-11863888D02*
X12038753Y-11825793D01*
X12038753Y-11825793D02*
X12038753Y-11778174D01*
X12038753Y-11778174D02*
X12048277Y-11740079D01*
X12048277Y-11740079D02*
X12057801Y-11721031D01*
X12057801Y-11721031D02*
X12067324Y-11711508D01*
X12067324Y-11711508D02*
X12086372Y-11701984D01*
X12238753Y-11882936D02*
X12248277Y-11892460D01*
X12248277Y-11892460D02*
X12238753Y-11901984D01*
X12238753Y-11901984D02*
X12229229Y-11892460D01*
X12229229Y-11892460D02*
X12238753Y-11882936D01*
X12238753Y-11882936D02*
X12238753Y-11901984D01*
X12362562Y-11787698D02*
X12343515Y-11778174D01*
X12343515Y-11778174D02*
X12333991Y-11768650D01*
X12333991Y-11768650D02*
X12324467Y-11749603D01*
X12324467Y-11749603D02*
X12324467Y-11740079D01*
X12324467Y-11740079D02*
X12333991Y-11721031D01*
X12333991Y-11721031D02*
X12343515Y-11711508D01*
X12343515Y-11711508D02*
X12362562Y-11701984D01*
X12362562Y-11701984D02*
X12400658Y-11701984D01*
X12400658Y-11701984D02*
X12419705Y-11711508D01*
X12419705Y-11711508D02*
X12429229Y-11721031D01*
X12429229Y-11721031D02*
X12438753Y-11740079D01*
X12438753Y-11740079D02*
X12438753Y-11749603D01*
X12438753Y-11749603D02*
X12429229Y-11768650D01*
X12429229Y-11768650D02*
X12419705Y-11778174D01*
X12419705Y-11778174D02*
X12400658Y-11787698D01*
X12400658Y-11787698D02*
X12362562Y-11787698D01*
X12362562Y-11787698D02*
X12343515Y-11797222D01*
X12343515Y-11797222D02*
X12333991Y-11806746D01*
X12333991Y-11806746D02*
X12324467Y-11825793D01*
X12324467Y-11825793D02*
X12324467Y-11863888D01*
X12324467Y-11863888D02*
X12333991Y-11882936D01*
X12333991Y-11882936D02*
X12343515Y-11892460D01*
X12343515Y-11892460D02*
X12362562Y-11901984D01*
X12362562Y-11901984D02*
X12400658Y-11901984D01*
X12400658Y-11901984D02*
X12419705Y-11892460D01*
X12419705Y-11892460D02*
X12429229Y-11882936D01*
X12429229Y-11882936D02*
X12438753Y-11863888D01*
X12438753Y-11863888D02*
X12438753Y-11825793D01*
X12438753Y-11825793D02*
X12429229Y-11806746D01*
X12429229Y-11806746D02*
X12419705Y-11797222D01*
X12419705Y-11797222D02*
X12400658Y-11787698D01*
X12562562Y-11701984D02*
X12581610Y-11701984D01*
X12581610Y-11701984D02*
X12600658Y-11711508D01*
X12600658Y-11711508D02*
X12610182Y-11721031D01*
X12610182Y-11721031D02*
X12619705Y-11740079D01*
X12619705Y-11740079D02*
X12629229Y-11778174D01*
X12629229Y-11778174D02*
X12629229Y-11825793D01*
X12629229Y-11825793D02*
X12619705Y-11863888D01*
X12619705Y-11863888D02*
X12610182Y-11882936D01*
X12610182Y-11882936D02*
X12600658Y-11892460D01*
X12600658Y-11892460D02*
X12581610Y-11901984D01*
X12581610Y-11901984D02*
X12562562Y-11901984D01*
X12562562Y-11901984D02*
X12543515Y-11892460D01*
X12543515Y-11892460D02*
X12533991Y-11882936D01*
X12533991Y-11882936D02*
X12524467Y-11863888D01*
X12524467Y-11863888D02*
X12514943Y-11825793D01*
X12514943Y-11825793D02*
X12514943Y-11778174D01*
X12514943Y-11778174D02*
X12524467Y-11740079D01*
X12524467Y-11740079D02*
X12533991Y-11721031D01*
X12533991Y-11721031D02*
X12543515Y-11711508D01*
X12543515Y-11711508D02*
X12562562Y-11701984D01*
X12753039Y-11701984D02*
X12772086Y-11701984D01*
X12772086Y-11701984D02*
X12791134Y-11711508D01*
X12791134Y-11711508D02*
X12800658Y-11721031D01*
X12800658Y-11721031D02*
X12810182Y-11740079D01*
X12810182Y-11740079D02*
X12819705Y-11778174D01*
X12819705Y-11778174D02*
X12819705Y-11825793D01*
X12819705Y-11825793D02*
X12810182Y-11863888D01*
X12810182Y-11863888D02*
X12800658Y-11882936D01*
X12800658Y-11882936D02*
X12791134Y-11892460D01*
X12791134Y-11892460D02*
X12772086Y-11901984D01*
X12772086Y-11901984D02*
X12753039Y-11901984D01*
X12753039Y-11901984D02*
X12733991Y-11892460D01*
X12733991Y-11892460D02*
X12724467Y-11882936D01*
X12724467Y-11882936D02*
X12714943Y-11863888D01*
X12714943Y-11863888D02*
X12705420Y-11825793D01*
X12705420Y-11825793D02*
X12705420Y-11778174D01*
X12705420Y-11778174D02*
X12714943Y-11740079D01*
X12714943Y-11740079D02*
X12724467Y-11721031D01*
X12724467Y-11721031D02*
X12733991Y-11711508D01*
X12733991Y-11711508D02*
X12753039Y-11701984D01*
X12905420Y-11901984D02*
X12905420Y-11768650D01*
X12905420Y-11787698D02*
X12914943Y-11778174D01*
X12914943Y-11778174D02*
X12933991Y-11768650D01*
X12933991Y-11768650D02*
X12962563Y-11768650D01*
X12962563Y-11768650D02*
X12981610Y-11778174D01*
X12981610Y-11778174D02*
X12991134Y-11797222D01*
X12991134Y-11797222D02*
X12991134Y-11901984D01*
X12991134Y-11797222D02*
X13000658Y-11778174D01*
X13000658Y-11778174D02*
X13019705Y-11768650D01*
X13019705Y-11768650D02*
X13048277Y-11768650D01*
X13048277Y-11768650D02*
X13067324Y-11778174D01*
X13067324Y-11778174D02*
X13076848Y-11797222D01*
X13076848Y-11797222D02*
X13076848Y-11901984D01*
X13172086Y-11901984D02*
X13172086Y-11768650D01*
X13172086Y-11787698D02*
X13181610Y-11778174D01*
X13181610Y-11778174D02*
X13200658Y-11768650D01*
X13200658Y-11768650D02*
X13229229Y-11768650D01*
X13229229Y-11768650D02*
X13248277Y-11778174D01*
X13248277Y-11778174D02*
X13257801Y-11797222D01*
X13257801Y-11797222D02*
X13257801Y-11901984D01*
X13257801Y-11797222D02*
X13267324Y-11778174D01*
X13267324Y-11778174D02*
X13286372Y-11768650D01*
X13286372Y-11768650D02*
X13314943Y-11768650D01*
X13314943Y-11768650D02*
X13333991Y-11778174D01*
X13333991Y-11778174D02*
X13343515Y-11797222D01*
X13343515Y-11797222D02*
X13343515Y-11901984D01*
X13733991Y-11692460D02*
X13562563Y-11949603D01*
X13991134Y-11701984D02*
X14010182Y-11701984D01*
X14010182Y-11701984D02*
X14029229Y-11711508D01*
X14029229Y-11711508D02*
X14038753Y-11721031D01*
X14038753Y-11721031D02*
X14048277Y-11740079D01*
X14048277Y-11740079D02*
X14057801Y-11778174D01*
X14057801Y-11778174D02*
X14057801Y-11825793D01*
X14057801Y-11825793D02*
X14048277Y-11863888D01*
X14048277Y-11863888D02*
X14038753Y-11882936D01*
X14038753Y-11882936D02*
X14029229Y-11892460D01*
X14029229Y-11892460D02*
X14010182Y-11901984D01*
X14010182Y-11901984D02*
X13991134Y-11901984D01*
X13991134Y-11901984D02*
X13972086Y-11892460D01*
X13972086Y-11892460D02*
X13962563Y-11882936D01*
X13962563Y-11882936D02*
X13953039Y-11863888D01*
X13953039Y-11863888D02*
X13943515Y-11825793D01*
X13943515Y-11825793D02*
X13943515Y-11778174D01*
X13943515Y-11778174D02*
X13953039Y-11740079D01*
X13953039Y-11740079D02*
X13962563Y-11721031D01*
X13962563Y-11721031D02*
X13972086Y-11711508D01*
X13972086Y-11711508D02*
X13991134Y-11701984D01*
X14143515Y-11882936D02*
X14153039Y-11892460D01*
X14153039Y-11892460D02*
X14143515Y-11901984D01*
X14143515Y-11901984D02*
X14133991Y-11892460D01*
X14133991Y-11892460D02*
X14143515Y-11882936D01*
X14143515Y-11882936D02*
X14143515Y-11901984D01*
X14276848Y-11701984D02*
X14295896Y-11701984D01*
X14295896Y-11701984D02*
X14314944Y-11711508D01*
X14314944Y-11711508D02*
X14324467Y-11721031D01*
X14324467Y-11721031D02*
X14333991Y-11740079D01*
X14333991Y-11740079D02*
X14343515Y-11778174D01*
X14343515Y-11778174D02*
X14343515Y-11825793D01*
X14343515Y-11825793D02*
X14333991Y-11863888D01*
X14333991Y-11863888D02*
X14324467Y-11882936D01*
X14324467Y-11882936D02*
X14314944Y-11892460D01*
X14314944Y-11892460D02*
X14295896Y-11901984D01*
X14295896Y-11901984D02*
X14276848Y-11901984D01*
X14276848Y-11901984D02*
X14257801Y-11892460D01*
X14257801Y-11892460D02*
X14248277Y-11882936D01*
X14248277Y-11882936D02*
X14238753Y-11863888D01*
X14238753Y-11863888D02*
X14229229Y-11825793D01*
X14229229Y-11825793D02*
X14229229Y-11778174D01*
X14229229Y-11778174D02*
X14238753Y-11740079D01*
X14238753Y-11740079D02*
X14248277Y-11721031D01*
X14248277Y-11721031D02*
X14257801Y-11711508D01*
X14257801Y-11711508D02*
X14276848Y-11701984D01*
X14410182Y-11701984D02*
X14533991Y-11701984D01*
X14533991Y-11701984D02*
X14467325Y-11778174D01*
X14467325Y-11778174D02*
X14495896Y-11778174D01*
X14495896Y-11778174D02*
X14514944Y-11787698D01*
X14514944Y-11787698D02*
X14524467Y-11797222D01*
X14524467Y-11797222D02*
X14533991Y-11816269D01*
X14533991Y-11816269D02*
X14533991Y-11863888D01*
X14533991Y-11863888D02*
X14524467Y-11882936D01*
X14524467Y-11882936D02*
X14514944Y-11892460D01*
X14514944Y-11892460D02*
X14495896Y-11901984D01*
X14495896Y-11901984D02*
X14438753Y-11901984D01*
X14438753Y-11901984D02*
X14419706Y-11892460D01*
X14419706Y-11892460D02*
X14410182Y-11882936D01*
X14724467Y-11901984D02*
X14610182Y-11901984D01*
X14667325Y-11901984D02*
X14667325Y-11701984D01*
X14667325Y-11701984D02*
X14648277Y-11730555D01*
X14648277Y-11730555D02*
X14629229Y-11749603D01*
X14629229Y-11749603D02*
X14610182Y-11759127D01*
X14905420Y-11701984D02*
X14810182Y-11701984D01*
X14810182Y-11701984D02*
X14800658Y-11797222D01*
X14800658Y-11797222D02*
X14810182Y-11787698D01*
X14810182Y-11787698D02*
X14829229Y-11778174D01*
X14829229Y-11778174D02*
X14876848Y-11778174D01*
X14876848Y-11778174D02*
X14895896Y-11787698D01*
X14895896Y-11787698D02*
X14905420Y-11797222D01*
X14905420Y-11797222D02*
X14914944Y-11816269D01*
X14914944Y-11816269D02*
X14914944Y-11863888D01*
X14914944Y-11863888D02*
X14905420Y-11882936D01*
X14905420Y-11882936D02*
X14895896Y-11892460D01*
X14895896Y-11892460D02*
X14876848Y-11901984D01*
X14876848Y-11901984D02*
X14829229Y-11901984D01*
X14829229Y-11901984D02*
X14810182Y-11892460D01*
X14810182Y-11892460D02*
X14800658Y-11882936D01*
X14991134Y-11701984D02*
X14991134Y-11740079D01*
X15067325Y-11701984D02*
X15067325Y-11740079D01*
X15362563Y-11978174D02*
X15353039Y-11968650D01*
X15353039Y-11968650D02*
X15333991Y-11940079D01*
X15333991Y-11940079D02*
X15324468Y-11921031D01*
X15324468Y-11921031D02*
X15314944Y-11892460D01*
X15314944Y-11892460D02*
X15305420Y-11844841D01*
X15305420Y-11844841D02*
X15305420Y-11806746D01*
X15305420Y-11806746D02*
X15314944Y-11759127D01*
X15314944Y-11759127D02*
X15324468Y-11730555D01*
X15324468Y-11730555D02*
X15333991Y-11711508D01*
X15333991Y-11711508D02*
X15353039Y-11682936D01*
X15353039Y-11682936D02*
X15362563Y-11673412D01*
X15543515Y-11901984D02*
X15429229Y-11901984D01*
X15486372Y-11901984D02*
X15486372Y-11701984D01*
X15486372Y-11701984D02*
X15467325Y-11730555D01*
X15467325Y-11730555D02*
X15448277Y-11749603D01*
X15448277Y-11749603D02*
X15429229Y-11759127D01*
X15714944Y-11701984D02*
X15676848Y-11701984D01*
X15676848Y-11701984D02*
X15657801Y-11711508D01*
X15657801Y-11711508D02*
X15648277Y-11721031D01*
X15648277Y-11721031D02*
X15629229Y-11749603D01*
X15629229Y-11749603D02*
X15619706Y-11787698D01*
X15619706Y-11787698D02*
X15619706Y-11863888D01*
X15619706Y-11863888D02*
X15629229Y-11882936D01*
X15629229Y-11882936D02*
X15638753Y-11892460D01*
X15638753Y-11892460D02*
X15657801Y-11901984D01*
X15657801Y-11901984D02*
X15695896Y-11901984D01*
X15695896Y-11901984D02*
X15714944Y-11892460D01*
X15714944Y-11892460D02*
X15724468Y-11882936D01*
X15724468Y-11882936D02*
X15733991Y-11863888D01*
X15733991Y-11863888D02*
X15733991Y-11816269D01*
X15733991Y-11816269D02*
X15724468Y-11797222D01*
X15724468Y-11797222D02*
X15714944Y-11787698D01*
X15714944Y-11787698D02*
X15695896Y-11778174D01*
X15695896Y-11778174D02*
X15657801Y-11778174D01*
X15657801Y-11778174D02*
X15638753Y-11787698D01*
X15638753Y-11787698D02*
X15629229Y-11797222D01*
X15629229Y-11797222D02*
X15619706Y-11816269D01*
X15972087Y-11901984D02*
X15972087Y-11701984D01*
X16057801Y-11901984D02*
X16057801Y-11797222D01*
X16057801Y-11797222D02*
X16048277Y-11778174D01*
X16048277Y-11778174D02*
X16029230Y-11768650D01*
X16029230Y-11768650D02*
X16000658Y-11768650D01*
X16000658Y-11768650D02*
X15981610Y-11778174D01*
X15981610Y-11778174D02*
X15972087Y-11787698D01*
X16181610Y-11901984D02*
X16162563Y-11892460D01*
X16162563Y-11892460D02*
X16153039Y-11882936D01*
X16153039Y-11882936D02*
X16143515Y-11863888D01*
X16143515Y-11863888D02*
X16143515Y-11806746D01*
X16143515Y-11806746D02*
X16153039Y-11787698D01*
X16153039Y-11787698D02*
X16162563Y-11778174D01*
X16162563Y-11778174D02*
X16181610Y-11768650D01*
X16181610Y-11768650D02*
X16210182Y-11768650D01*
X16210182Y-11768650D02*
X16229230Y-11778174D01*
X16229230Y-11778174D02*
X16238753Y-11787698D01*
X16238753Y-11787698D02*
X16248277Y-11806746D01*
X16248277Y-11806746D02*
X16248277Y-11863888D01*
X16248277Y-11863888D02*
X16238753Y-11882936D01*
X16238753Y-11882936D02*
X16229230Y-11892460D01*
X16229230Y-11892460D02*
X16210182Y-11901984D01*
X16210182Y-11901984D02*
X16181610Y-11901984D01*
X16362563Y-11901984D02*
X16343515Y-11892460D01*
X16343515Y-11892460D02*
X16333991Y-11873412D01*
X16333991Y-11873412D02*
X16333991Y-11701984D01*
X16514944Y-11892460D02*
X16495896Y-11901984D01*
X16495896Y-11901984D02*
X16457801Y-11901984D01*
X16457801Y-11901984D02*
X16438753Y-11892460D01*
X16438753Y-11892460D02*
X16429230Y-11873412D01*
X16429230Y-11873412D02*
X16429230Y-11797222D01*
X16429230Y-11797222D02*
X16438753Y-11778174D01*
X16438753Y-11778174D02*
X16457801Y-11768650D01*
X16457801Y-11768650D02*
X16495896Y-11768650D01*
X16495896Y-11768650D02*
X16514944Y-11778174D01*
X16514944Y-11778174D02*
X16524468Y-11797222D01*
X16524468Y-11797222D02*
X16524468Y-11816269D01*
X16524468Y-11816269D02*
X16429230Y-11835317D01*
X16600658Y-11892460D02*
X16619706Y-11901984D01*
X16619706Y-11901984D02*
X16657801Y-11901984D01*
X16657801Y-11901984D02*
X16676849Y-11892460D01*
X16676849Y-11892460D02*
X16686372Y-11873412D01*
X16686372Y-11873412D02*
X16686372Y-11863888D01*
X16686372Y-11863888D02*
X16676849Y-11844841D01*
X16676849Y-11844841D02*
X16657801Y-11835317D01*
X16657801Y-11835317D02*
X16629230Y-11835317D01*
X16629230Y-11835317D02*
X16610182Y-11825793D01*
X16610182Y-11825793D02*
X16600658Y-11806746D01*
X16600658Y-11806746D02*
X16600658Y-11797222D01*
X16600658Y-11797222D02*
X16610182Y-11778174D01*
X16610182Y-11778174D02*
X16629230Y-11768650D01*
X16629230Y-11768650D02*
X16657801Y-11768650D01*
X16657801Y-11768650D02*
X16676849Y-11778174D01*
X16753039Y-11978174D02*
X16762563Y-11968650D01*
X16762563Y-11968650D02*
X16781611Y-11940079D01*
X16781611Y-11940079D02*
X16791134Y-11921031D01*
X16791134Y-11921031D02*
X16800658Y-11892460D01*
X16800658Y-11892460D02*
X16810182Y-11844841D01*
X16810182Y-11844841D02*
X16810182Y-11806746D01*
X16810182Y-11806746D02*
X16800658Y-11759127D01*
X16800658Y-11759127D02*
X16791134Y-11730555D01*
X16791134Y-11730555D02*
X16781611Y-11711508D01*
X16781611Y-11711508D02*
X16762563Y-11682936D01*
X16762563Y-11682936D02*
X16753039Y-11673412D01*
D12*
X11775052Y-12104552D02*
X11775052Y-12044448D01*
X11714948Y-12044448D01*
X11714948Y-12104552D01*
X11775052Y-12104552D01*
D11*
X12086372Y-11965984D02*
X12105420Y-11965984D01*
X12105420Y-11965984D02*
X12124467Y-11975508D01*
X12124467Y-11975508D02*
X12133991Y-11985031D01*
X12133991Y-11985031D02*
X12143515Y-12004079D01*
X12143515Y-12004079D02*
X12153039Y-12042174D01*
X12153039Y-12042174D02*
X12153039Y-12089793D01*
X12153039Y-12089793D02*
X12143515Y-12127888D01*
X12143515Y-12127888D02*
X12133991Y-12146936D01*
X12133991Y-12146936D02*
X12124467Y-12156460D01*
X12124467Y-12156460D02*
X12105420Y-12165984D01*
X12105420Y-12165984D02*
X12086372Y-12165984D01*
X12086372Y-12165984D02*
X12067324Y-12156460D01*
X12067324Y-12156460D02*
X12057801Y-12146936D01*
X12057801Y-12146936D02*
X12048277Y-12127888D01*
X12048277Y-12127888D02*
X12038753Y-12089793D01*
X12038753Y-12089793D02*
X12038753Y-12042174D01*
X12038753Y-12042174D02*
X12048277Y-12004079D01*
X12048277Y-12004079D02*
X12057801Y-11985031D01*
X12057801Y-11985031D02*
X12067324Y-11975508D01*
X12067324Y-11975508D02*
X12086372Y-11965984D01*
X12238753Y-12146936D02*
X12248277Y-12156460D01*
X12248277Y-12156460D02*
X12238753Y-12165984D01*
X12238753Y-12165984D02*
X12229229Y-12156460D01*
X12229229Y-12156460D02*
X12238753Y-12146936D01*
X12238753Y-12146936D02*
X12238753Y-12165984D01*
X12362562Y-12051698D02*
X12343515Y-12042174D01*
X12343515Y-12042174D02*
X12333991Y-12032650D01*
X12333991Y-12032650D02*
X12324467Y-12013603D01*
X12324467Y-12013603D02*
X12324467Y-12004079D01*
X12324467Y-12004079D02*
X12333991Y-11985031D01*
X12333991Y-11985031D02*
X12343515Y-11975508D01*
X12343515Y-11975508D02*
X12362562Y-11965984D01*
X12362562Y-11965984D02*
X12400658Y-11965984D01*
X12400658Y-11965984D02*
X12419705Y-11975508D01*
X12419705Y-11975508D02*
X12429229Y-11985031D01*
X12429229Y-11985031D02*
X12438753Y-12004079D01*
X12438753Y-12004079D02*
X12438753Y-12013603D01*
X12438753Y-12013603D02*
X12429229Y-12032650D01*
X12429229Y-12032650D02*
X12419705Y-12042174D01*
X12419705Y-12042174D02*
X12400658Y-12051698D01*
X12400658Y-12051698D02*
X12362562Y-12051698D01*
X12362562Y-12051698D02*
X12343515Y-12061222D01*
X12343515Y-12061222D02*
X12333991Y-12070746D01*
X12333991Y-12070746D02*
X12324467Y-12089793D01*
X12324467Y-12089793D02*
X12324467Y-12127888D01*
X12324467Y-12127888D02*
X12333991Y-12146936D01*
X12333991Y-12146936D02*
X12343515Y-12156460D01*
X12343515Y-12156460D02*
X12362562Y-12165984D01*
X12362562Y-12165984D02*
X12400658Y-12165984D01*
X12400658Y-12165984D02*
X12419705Y-12156460D01*
X12419705Y-12156460D02*
X12429229Y-12146936D01*
X12429229Y-12146936D02*
X12438753Y-12127888D01*
X12438753Y-12127888D02*
X12438753Y-12089793D01*
X12438753Y-12089793D02*
X12429229Y-12070746D01*
X12429229Y-12070746D02*
X12419705Y-12061222D01*
X12419705Y-12061222D02*
X12400658Y-12051698D01*
X12619705Y-11965984D02*
X12524467Y-11965984D01*
X12524467Y-11965984D02*
X12514943Y-12061222D01*
X12514943Y-12061222D02*
X12524467Y-12051698D01*
X12524467Y-12051698D02*
X12543515Y-12042174D01*
X12543515Y-12042174D02*
X12591134Y-12042174D01*
X12591134Y-12042174D02*
X12610182Y-12051698D01*
X12610182Y-12051698D02*
X12619705Y-12061222D01*
X12619705Y-12061222D02*
X12629229Y-12080269D01*
X12629229Y-12080269D02*
X12629229Y-12127888D01*
X12629229Y-12127888D02*
X12619705Y-12146936D01*
X12619705Y-12146936D02*
X12610182Y-12156460D01*
X12610182Y-12156460D02*
X12591134Y-12165984D01*
X12591134Y-12165984D02*
X12543515Y-12165984D01*
X12543515Y-12165984D02*
X12524467Y-12156460D01*
X12524467Y-12156460D02*
X12514943Y-12146936D01*
X12753039Y-11965984D02*
X12772086Y-11965984D01*
X12772086Y-11965984D02*
X12791134Y-11975508D01*
X12791134Y-11975508D02*
X12800658Y-11985031D01*
X12800658Y-11985031D02*
X12810182Y-12004079D01*
X12810182Y-12004079D02*
X12819705Y-12042174D01*
X12819705Y-12042174D02*
X12819705Y-12089793D01*
X12819705Y-12089793D02*
X12810182Y-12127888D01*
X12810182Y-12127888D02*
X12800658Y-12146936D01*
X12800658Y-12146936D02*
X12791134Y-12156460D01*
X12791134Y-12156460D02*
X12772086Y-12165984D01*
X12772086Y-12165984D02*
X12753039Y-12165984D01*
X12753039Y-12165984D02*
X12733991Y-12156460D01*
X12733991Y-12156460D02*
X12724467Y-12146936D01*
X12724467Y-12146936D02*
X12714943Y-12127888D01*
X12714943Y-12127888D02*
X12705420Y-12089793D01*
X12705420Y-12089793D02*
X12705420Y-12042174D01*
X12705420Y-12042174D02*
X12714943Y-12004079D01*
X12714943Y-12004079D02*
X12724467Y-11985031D01*
X12724467Y-11985031D02*
X12733991Y-11975508D01*
X12733991Y-11975508D02*
X12753039Y-11965984D01*
X12905420Y-12165984D02*
X12905420Y-12032650D01*
X12905420Y-12051698D02*
X12914943Y-12042174D01*
X12914943Y-12042174D02*
X12933991Y-12032650D01*
X12933991Y-12032650D02*
X12962563Y-12032650D01*
X12962563Y-12032650D02*
X12981610Y-12042174D01*
X12981610Y-12042174D02*
X12991134Y-12061222D01*
X12991134Y-12061222D02*
X12991134Y-12165984D01*
X12991134Y-12061222D02*
X13000658Y-12042174D01*
X13000658Y-12042174D02*
X13019705Y-12032650D01*
X13019705Y-12032650D02*
X13048277Y-12032650D01*
X13048277Y-12032650D02*
X13067324Y-12042174D01*
X13067324Y-12042174D02*
X13076848Y-12061222D01*
X13076848Y-12061222D02*
X13076848Y-12165984D01*
X13172086Y-12165984D02*
X13172086Y-12032650D01*
X13172086Y-12051698D02*
X13181610Y-12042174D01*
X13181610Y-12042174D02*
X13200658Y-12032650D01*
X13200658Y-12032650D02*
X13229229Y-12032650D01*
X13229229Y-12032650D02*
X13248277Y-12042174D01*
X13248277Y-12042174D02*
X13257801Y-12061222D01*
X13257801Y-12061222D02*
X13257801Y-12165984D01*
X13257801Y-12061222D02*
X13267324Y-12042174D01*
X13267324Y-12042174D02*
X13286372Y-12032650D01*
X13286372Y-12032650D02*
X13314943Y-12032650D01*
X13314943Y-12032650D02*
X13333991Y-12042174D01*
X13333991Y-12042174D02*
X13343515Y-12061222D01*
X13343515Y-12061222D02*
X13343515Y-12165984D01*
X13733991Y-11956460D02*
X13562563Y-12213603D01*
X13991134Y-11965984D02*
X14010182Y-11965984D01*
X14010182Y-11965984D02*
X14029229Y-11975508D01*
X14029229Y-11975508D02*
X14038753Y-11985031D01*
X14038753Y-11985031D02*
X14048277Y-12004079D01*
X14048277Y-12004079D02*
X14057801Y-12042174D01*
X14057801Y-12042174D02*
X14057801Y-12089793D01*
X14057801Y-12089793D02*
X14048277Y-12127888D01*
X14048277Y-12127888D02*
X14038753Y-12146936D01*
X14038753Y-12146936D02*
X14029229Y-12156460D01*
X14029229Y-12156460D02*
X14010182Y-12165984D01*
X14010182Y-12165984D02*
X13991134Y-12165984D01*
X13991134Y-12165984D02*
X13972086Y-12156460D01*
X13972086Y-12156460D02*
X13962563Y-12146936D01*
X13962563Y-12146936D02*
X13953039Y-12127888D01*
X13953039Y-12127888D02*
X13943515Y-12089793D01*
X13943515Y-12089793D02*
X13943515Y-12042174D01*
X13943515Y-12042174D02*
X13953039Y-12004079D01*
X13953039Y-12004079D02*
X13962563Y-11985031D01*
X13962563Y-11985031D02*
X13972086Y-11975508D01*
X13972086Y-11975508D02*
X13991134Y-11965984D01*
X14143515Y-12146936D02*
X14153039Y-12156460D01*
X14153039Y-12156460D02*
X14143515Y-12165984D01*
X14143515Y-12165984D02*
X14133991Y-12156460D01*
X14133991Y-12156460D02*
X14143515Y-12146936D01*
X14143515Y-12146936D02*
X14143515Y-12165984D01*
X14276848Y-11965984D02*
X14295896Y-11965984D01*
X14295896Y-11965984D02*
X14314944Y-11975508D01*
X14314944Y-11975508D02*
X14324467Y-11985031D01*
X14324467Y-11985031D02*
X14333991Y-12004079D01*
X14333991Y-12004079D02*
X14343515Y-12042174D01*
X14343515Y-12042174D02*
X14343515Y-12089793D01*
X14343515Y-12089793D02*
X14333991Y-12127888D01*
X14333991Y-12127888D02*
X14324467Y-12146936D01*
X14324467Y-12146936D02*
X14314944Y-12156460D01*
X14314944Y-12156460D02*
X14295896Y-12165984D01*
X14295896Y-12165984D02*
X14276848Y-12165984D01*
X14276848Y-12165984D02*
X14257801Y-12156460D01*
X14257801Y-12156460D02*
X14248277Y-12146936D01*
X14248277Y-12146936D02*
X14238753Y-12127888D01*
X14238753Y-12127888D02*
X14229229Y-12089793D01*
X14229229Y-12089793D02*
X14229229Y-12042174D01*
X14229229Y-12042174D02*
X14238753Y-12004079D01*
X14238753Y-12004079D02*
X14248277Y-11985031D01*
X14248277Y-11985031D02*
X14257801Y-11975508D01*
X14257801Y-11975508D02*
X14276848Y-11965984D01*
X14410182Y-11965984D02*
X14533991Y-11965984D01*
X14533991Y-11965984D02*
X14467325Y-12042174D01*
X14467325Y-12042174D02*
X14495896Y-12042174D01*
X14495896Y-12042174D02*
X14514944Y-12051698D01*
X14514944Y-12051698D02*
X14524467Y-12061222D01*
X14524467Y-12061222D02*
X14533991Y-12080269D01*
X14533991Y-12080269D02*
X14533991Y-12127888D01*
X14533991Y-12127888D02*
X14524467Y-12146936D01*
X14524467Y-12146936D02*
X14514944Y-12156460D01*
X14514944Y-12156460D02*
X14495896Y-12165984D01*
X14495896Y-12165984D02*
X14438753Y-12165984D01*
X14438753Y-12165984D02*
X14419706Y-12156460D01*
X14419706Y-12156460D02*
X14410182Y-12146936D01*
X14600658Y-11965984D02*
X14724467Y-11965984D01*
X14724467Y-11965984D02*
X14657801Y-12042174D01*
X14657801Y-12042174D02*
X14686372Y-12042174D01*
X14686372Y-12042174D02*
X14705420Y-12051698D01*
X14705420Y-12051698D02*
X14714944Y-12061222D01*
X14714944Y-12061222D02*
X14724467Y-12080269D01*
X14724467Y-12080269D02*
X14724467Y-12127888D01*
X14724467Y-12127888D02*
X14714944Y-12146936D01*
X14714944Y-12146936D02*
X14705420Y-12156460D01*
X14705420Y-12156460D02*
X14686372Y-12165984D01*
X14686372Y-12165984D02*
X14629229Y-12165984D01*
X14629229Y-12165984D02*
X14610182Y-12156460D01*
X14610182Y-12156460D02*
X14600658Y-12146936D01*
X14905420Y-11965984D02*
X14810182Y-11965984D01*
X14810182Y-11965984D02*
X14800658Y-12061222D01*
X14800658Y-12061222D02*
X14810182Y-12051698D01*
X14810182Y-12051698D02*
X14829229Y-12042174D01*
X14829229Y-12042174D02*
X14876848Y-12042174D01*
X14876848Y-12042174D02*
X14895896Y-12051698D01*
X14895896Y-12051698D02*
X14905420Y-12061222D01*
X14905420Y-12061222D02*
X14914944Y-12080269D01*
X14914944Y-12080269D02*
X14914944Y-12127888D01*
X14914944Y-12127888D02*
X14905420Y-12146936D01*
X14905420Y-12146936D02*
X14895896Y-12156460D01*
X14895896Y-12156460D02*
X14876848Y-12165984D01*
X14876848Y-12165984D02*
X14829229Y-12165984D01*
X14829229Y-12165984D02*
X14810182Y-12156460D01*
X14810182Y-12156460D02*
X14800658Y-12146936D01*
X14991134Y-11965984D02*
X14991134Y-12004079D01*
X15067325Y-11965984D02*
X15067325Y-12004079D01*
X15362563Y-12242174D02*
X15353039Y-12232650D01*
X15353039Y-12232650D02*
X15333991Y-12204079D01*
X15333991Y-12204079D02*
X15324468Y-12185031D01*
X15324468Y-12185031D02*
X15314944Y-12156460D01*
X15314944Y-12156460D02*
X15305420Y-12108841D01*
X15305420Y-12108841D02*
X15305420Y-12070746D01*
X15305420Y-12070746D02*
X15314944Y-12023127D01*
X15314944Y-12023127D02*
X15324468Y-11994555D01*
X15324468Y-11994555D02*
X15333991Y-11975508D01*
X15333991Y-11975508D02*
X15353039Y-11946936D01*
X15353039Y-11946936D02*
X15362563Y-11937412D01*
X15543515Y-12165984D02*
X15429229Y-12165984D01*
X15486372Y-12165984D02*
X15486372Y-11965984D01*
X15486372Y-11965984D02*
X15467325Y-11994555D01*
X15467325Y-11994555D02*
X15448277Y-12013603D01*
X15448277Y-12013603D02*
X15429229Y-12023127D01*
X15667325Y-11965984D02*
X15686372Y-11965984D01*
X15686372Y-11965984D02*
X15705420Y-11975508D01*
X15705420Y-11975508D02*
X15714944Y-11985031D01*
X15714944Y-11985031D02*
X15724468Y-12004079D01*
X15724468Y-12004079D02*
X15733991Y-12042174D01*
X15733991Y-12042174D02*
X15733991Y-12089793D01*
X15733991Y-12089793D02*
X15724468Y-12127888D01*
X15724468Y-12127888D02*
X15714944Y-12146936D01*
X15714944Y-12146936D02*
X15705420Y-12156460D01*
X15705420Y-12156460D02*
X15686372Y-12165984D01*
X15686372Y-12165984D02*
X15667325Y-12165984D01*
X15667325Y-12165984D02*
X15648277Y-12156460D01*
X15648277Y-12156460D02*
X15638753Y-12146936D01*
X15638753Y-12146936D02*
X15629229Y-12127888D01*
X15629229Y-12127888D02*
X15619706Y-12089793D01*
X15619706Y-12089793D02*
X15619706Y-12042174D01*
X15619706Y-12042174D02*
X15629229Y-12004079D01*
X15629229Y-12004079D02*
X15638753Y-11985031D01*
X15638753Y-11985031D02*
X15648277Y-11975508D01*
X15648277Y-11975508D02*
X15667325Y-11965984D01*
X15972087Y-12165984D02*
X15972087Y-11965984D01*
X16057801Y-12165984D02*
X16057801Y-12061222D01*
X16057801Y-12061222D02*
X16048277Y-12042174D01*
X16048277Y-12042174D02*
X16029230Y-12032650D01*
X16029230Y-12032650D02*
X16000658Y-12032650D01*
X16000658Y-12032650D02*
X15981610Y-12042174D01*
X15981610Y-12042174D02*
X15972087Y-12051698D01*
X16181610Y-12165984D02*
X16162563Y-12156460D01*
X16162563Y-12156460D02*
X16153039Y-12146936D01*
X16153039Y-12146936D02*
X16143515Y-12127888D01*
X16143515Y-12127888D02*
X16143515Y-12070746D01*
X16143515Y-12070746D02*
X16153039Y-12051698D01*
X16153039Y-12051698D02*
X16162563Y-12042174D01*
X16162563Y-12042174D02*
X16181610Y-12032650D01*
X16181610Y-12032650D02*
X16210182Y-12032650D01*
X16210182Y-12032650D02*
X16229230Y-12042174D01*
X16229230Y-12042174D02*
X16238753Y-12051698D01*
X16238753Y-12051698D02*
X16248277Y-12070746D01*
X16248277Y-12070746D02*
X16248277Y-12127888D01*
X16248277Y-12127888D02*
X16238753Y-12146936D01*
X16238753Y-12146936D02*
X16229230Y-12156460D01*
X16229230Y-12156460D02*
X16210182Y-12165984D01*
X16210182Y-12165984D02*
X16181610Y-12165984D01*
X16362563Y-12165984D02*
X16343515Y-12156460D01*
X16343515Y-12156460D02*
X16333991Y-12137412D01*
X16333991Y-12137412D02*
X16333991Y-11965984D01*
X16514944Y-12156460D02*
X16495896Y-12165984D01*
X16495896Y-12165984D02*
X16457801Y-12165984D01*
X16457801Y-12165984D02*
X16438753Y-12156460D01*
X16438753Y-12156460D02*
X16429230Y-12137412D01*
X16429230Y-12137412D02*
X16429230Y-12061222D01*
X16429230Y-12061222D02*
X16438753Y-12042174D01*
X16438753Y-12042174D02*
X16457801Y-12032650D01*
X16457801Y-12032650D02*
X16495896Y-12032650D01*
X16495896Y-12032650D02*
X16514944Y-12042174D01*
X16514944Y-12042174D02*
X16524468Y-12061222D01*
X16524468Y-12061222D02*
X16524468Y-12080269D01*
X16524468Y-12080269D02*
X16429230Y-12099317D01*
X16600658Y-12156460D02*
X16619706Y-12165984D01*
X16619706Y-12165984D02*
X16657801Y-12165984D01*
X16657801Y-12165984D02*
X16676849Y-12156460D01*
X16676849Y-12156460D02*
X16686372Y-12137412D01*
X16686372Y-12137412D02*
X16686372Y-12127888D01*
X16686372Y-12127888D02*
X16676849Y-12108841D01*
X16676849Y-12108841D02*
X16657801Y-12099317D01*
X16657801Y-12099317D02*
X16629230Y-12099317D01*
X16629230Y-12099317D02*
X16610182Y-12089793D01*
X16610182Y-12089793D02*
X16600658Y-12070746D01*
X16600658Y-12070746D02*
X16600658Y-12061222D01*
X16600658Y-12061222D02*
X16610182Y-12042174D01*
X16610182Y-12042174D02*
X16629230Y-12032650D01*
X16629230Y-12032650D02*
X16657801Y-12032650D01*
X16657801Y-12032650D02*
X16676849Y-12042174D01*
X16753039Y-12242174D02*
X16762563Y-12232650D01*
X16762563Y-12232650D02*
X16781611Y-12204079D01*
X16781611Y-12204079D02*
X16791134Y-12185031D01*
X16791134Y-12185031D02*
X16800658Y-12156460D01*
X16800658Y-12156460D02*
X16810182Y-12108841D01*
X16810182Y-12108841D02*
X16810182Y-12070746D01*
X16810182Y-12070746D02*
X16800658Y-12023127D01*
X16800658Y-12023127D02*
X16791134Y-11994555D01*
X16791134Y-11994555D02*
X16781611Y-11975508D01*
X16781611Y-11975508D02*
X16762563Y-11946936D01*
X16762563Y-11946936D02*
X16753039Y-11937412D01*
D12*
X11740000Y-12386000D02*
X11787500Y-12338500D01*
X11740000Y-12291000D01*
X11692500Y-12338500D01*
X11740000Y-12386000D01*
D11*
X12086372Y-12229984D02*
X12105420Y-12229984D01*
X12105420Y-12229984D02*
X12124467Y-12239508D01*
X12124467Y-12239508D02*
X12133991Y-12249031D01*
X12133991Y-12249031D02*
X12143515Y-12268079D01*
X12143515Y-12268079D02*
X12153039Y-12306174D01*
X12153039Y-12306174D02*
X12153039Y-12353793D01*
X12153039Y-12353793D02*
X12143515Y-12391888D01*
X12143515Y-12391888D02*
X12133991Y-12410936D01*
X12133991Y-12410936D02*
X12124467Y-12420460D01*
X12124467Y-12420460D02*
X12105420Y-12429984D01*
X12105420Y-12429984D02*
X12086372Y-12429984D01*
X12086372Y-12429984D02*
X12067324Y-12420460D01*
X12067324Y-12420460D02*
X12057801Y-12410936D01*
X12057801Y-12410936D02*
X12048277Y-12391888D01*
X12048277Y-12391888D02*
X12038753Y-12353793D01*
X12038753Y-12353793D02*
X12038753Y-12306174D01*
X12038753Y-12306174D02*
X12048277Y-12268079D01*
X12048277Y-12268079D02*
X12057801Y-12249031D01*
X12057801Y-12249031D02*
X12067324Y-12239508D01*
X12067324Y-12239508D02*
X12086372Y-12229984D01*
X12238753Y-12410936D02*
X12248277Y-12420460D01*
X12248277Y-12420460D02*
X12238753Y-12429984D01*
X12238753Y-12429984D02*
X12229229Y-12420460D01*
X12229229Y-12420460D02*
X12238753Y-12410936D01*
X12238753Y-12410936D02*
X12238753Y-12429984D01*
X12343515Y-12429984D02*
X12381610Y-12429984D01*
X12381610Y-12429984D02*
X12400658Y-12420460D01*
X12400658Y-12420460D02*
X12410182Y-12410936D01*
X12410182Y-12410936D02*
X12429229Y-12382365D01*
X12429229Y-12382365D02*
X12438753Y-12344269D01*
X12438753Y-12344269D02*
X12438753Y-12268079D01*
X12438753Y-12268079D02*
X12429229Y-12249031D01*
X12429229Y-12249031D02*
X12419705Y-12239508D01*
X12419705Y-12239508D02*
X12400658Y-12229984D01*
X12400658Y-12229984D02*
X12362562Y-12229984D01*
X12362562Y-12229984D02*
X12343515Y-12239508D01*
X12343515Y-12239508D02*
X12333991Y-12249031D01*
X12333991Y-12249031D02*
X12324467Y-12268079D01*
X12324467Y-12268079D02*
X12324467Y-12315698D01*
X12324467Y-12315698D02*
X12333991Y-12334746D01*
X12333991Y-12334746D02*
X12343515Y-12344269D01*
X12343515Y-12344269D02*
X12362562Y-12353793D01*
X12362562Y-12353793D02*
X12400658Y-12353793D01*
X12400658Y-12353793D02*
X12419705Y-12344269D01*
X12419705Y-12344269D02*
X12429229Y-12334746D01*
X12429229Y-12334746D02*
X12438753Y-12315698D01*
X12619705Y-12229984D02*
X12524467Y-12229984D01*
X12524467Y-12229984D02*
X12514943Y-12325222D01*
X12514943Y-12325222D02*
X12524467Y-12315698D01*
X12524467Y-12315698D02*
X12543515Y-12306174D01*
X12543515Y-12306174D02*
X12591134Y-12306174D01*
X12591134Y-12306174D02*
X12610182Y-12315698D01*
X12610182Y-12315698D02*
X12619705Y-12325222D01*
X12619705Y-12325222D02*
X12629229Y-12344269D01*
X12629229Y-12344269D02*
X12629229Y-12391888D01*
X12629229Y-12391888D02*
X12619705Y-12410936D01*
X12619705Y-12410936D02*
X12610182Y-12420460D01*
X12610182Y-12420460D02*
X12591134Y-12429984D01*
X12591134Y-12429984D02*
X12543515Y-12429984D01*
X12543515Y-12429984D02*
X12524467Y-12420460D01*
X12524467Y-12420460D02*
X12514943Y-12410936D01*
X12753039Y-12229984D02*
X12772086Y-12229984D01*
X12772086Y-12229984D02*
X12791134Y-12239508D01*
X12791134Y-12239508D02*
X12800658Y-12249031D01*
X12800658Y-12249031D02*
X12810182Y-12268079D01*
X12810182Y-12268079D02*
X12819705Y-12306174D01*
X12819705Y-12306174D02*
X12819705Y-12353793D01*
X12819705Y-12353793D02*
X12810182Y-12391888D01*
X12810182Y-12391888D02*
X12800658Y-12410936D01*
X12800658Y-12410936D02*
X12791134Y-12420460D01*
X12791134Y-12420460D02*
X12772086Y-12429984D01*
X12772086Y-12429984D02*
X12753039Y-12429984D01*
X12753039Y-12429984D02*
X12733991Y-12420460D01*
X12733991Y-12420460D02*
X12724467Y-12410936D01*
X12724467Y-12410936D02*
X12714943Y-12391888D01*
X12714943Y-12391888D02*
X12705420Y-12353793D01*
X12705420Y-12353793D02*
X12705420Y-12306174D01*
X12705420Y-12306174D02*
X12714943Y-12268079D01*
X12714943Y-12268079D02*
X12724467Y-12249031D01*
X12724467Y-12249031D02*
X12733991Y-12239508D01*
X12733991Y-12239508D02*
X12753039Y-12229984D01*
X12905420Y-12429984D02*
X12905420Y-12296650D01*
X12905420Y-12315698D02*
X12914943Y-12306174D01*
X12914943Y-12306174D02*
X12933991Y-12296650D01*
X12933991Y-12296650D02*
X12962563Y-12296650D01*
X12962563Y-12296650D02*
X12981610Y-12306174D01*
X12981610Y-12306174D02*
X12991134Y-12325222D01*
X12991134Y-12325222D02*
X12991134Y-12429984D01*
X12991134Y-12325222D02*
X13000658Y-12306174D01*
X13000658Y-12306174D02*
X13019705Y-12296650D01*
X13019705Y-12296650D02*
X13048277Y-12296650D01*
X13048277Y-12296650D02*
X13067324Y-12306174D01*
X13067324Y-12306174D02*
X13076848Y-12325222D01*
X13076848Y-12325222D02*
X13076848Y-12429984D01*
X13172086Y-12429984D02*
X13172086Y-12296650D01*
X13172086Y-12315698D02*
X13181610Y-12306174D01*
X13181610Y-12306174D02*
X13200658Y-12296650D01*
X13200658Y-12296650D02*
X13229229Y-12296650D01*
X13229229Y-12296650D02*
X13248277Y-12306174D01*
X13248277Y-12306174D02*
X13257801Y-12325222D01*
X13257801Y-12325222D02*
X13257801Y-12429984D01*
X13257801Y-12325222D02*
X13267324Y-12306174D01*
X13267324Y-12306174D02*
X13286372Y-12296650D01*
X13286372Y-12296650D02*
X13314943Y-12296650D01*
X13314943Y-12296650D02*
X13333991Y-12306174D01*
X13333991Y-12306174D02*
X13343515Y-12325222D01*
X13343515Y-12325222D02*
X13343515Y-12429984D01*
X13733991Y-12220460D02*
X13562563Y-12477603D01*
X13991134Y-12229984D02*
X14010182Y-12229984D01*
X14010182Y-12229984D02*
X14029229Y-12239508D01*
X14029229Y-12239508D02*
X14038753Y-12249031D01*
X14038753Y-12249031D02*
X14048277Y-12268079D01*
X14048277Y-12268079D02*
X14057801Y-12306174D01*
X14057801Y-12306174D02*
X14057801Y-12353793D01*
X14057801Y-12353793D02*
X14048277Y-12391888D01*
X14048277Y-12391888D02*
X14038753Y-12410936D01*
X14038753Y-12410936D02*
X14029229Y-12420460D01*
X14029229Y-12420460D02*
X14010182Y-12429984D01*
X14010182Y-12429984D02*
X13991134Y-12429984D01*
X13991134Y-12429984D02*
X13972086Y-12420460D01*
X13972086Y-12420460D02*
X13962563Y-12410936D01*
X13962563Y-12410936D02*
X13953039Y-12391888D01*
X13953039Y-12391888D02*
X13943515Y-12353793D01*
X13943515Y-12353793D02*
X13943515Y-12306174D01*
X13943515Y-12306174D02*
X13953039Y-12268079D01*
X13953039Y-12268079D02*
X13962563Y-12249031D01*
X13962563Y-12249031D02*
X13972086Y-12239508D01*
X13972086Y-12239508D02*
X13991134Y-12229984D01*
X14143515Y-12410936D02*
X14153039Y-12420460D01*
X14153039Y-12420460D02*
X14143515Y-12429984D01*
X14143515Y-12429984D02*
X14133991Y-12420460D01*
X14133991Y-12420460D02*
X14143515Y-12410936D01*
X14143515Y-12410936D02*
X14143515Y-12429984D01*
X14276848Y-12229984D02*
X14295896Y-12229984D01*
X14295896Y-12229984D02*
X14314944Y-12239508D01*
X14314944Y-12239508D02*
X14324467Y-12249031D01*
X14324467Y-12249031D02*
X14333991Y-12268079D01*
X14333991Y-12268079D02*
X14343515Y-12306174D01*
X14343515Y-12306174D02*
X14343515Y-12353793D01*
X14343515Y-12353793D02*
X14333991Y-12391888D01*
X14333991Y-12391888D02*
X14324467Y-12410936D01*
X14324467Y-12410936D02*
X14314944Y-12420460D01*
X14314944Y-12420460D02*
X14295896Y-12429984D01*
X14295896Y-12429984D02*
X14276848Y-12429984D01*
X14276848Y-12429984D02*
X14257801Y-12420460D01*
X14257801Y-12420460D02*
X14248277Y-12410936D01*
X14248277Y-12410936D02*
X14238753Y-12391888D01*
X14238753Y-12391888D02*
X14229229Y-12353793D01*
X14229229Y-12353793D02*
X14229229Y-12306174D01*
X14229229Y-12306174D02*
X14238753Y-12268079D01*
X14238753Y-12268079D02*
X14248277Y-12249031D01*
X14248277Y-12249031D02*
X14257801Y-12239508D01*
X14257801Y-12239508D02*
X14276848Y-12229984D01*
X14410182Y-12229984D02*
X14533991Y-12229984D01*
X14533991Y-12229984D02*
X14467325Y-12306174D01*
X14467325Y-12306174D02*
X14495896Y-12306174D01*
X14495896Y-12306174D02*
X14514944Y-12315698D01*
X14514944Y-12315698D02*
X14524467Y-12325222D01*
X14524467Y-12325222D02*
X14533991Y-12344269D01*
X14533991Y-12344269D02*
X14533991Y-12391888D01*
X14533991Y-12391888D02*
X14524467Y-12410936D01*
X14524467Y-12410936D02*
X14514944Y-12420460D01*
X14514944Y-12420460D02*
X14495896Y-12429984D01*
X14495896Y-12429984D02*
X14438753Y-12429984D01*
X14438753Y-12429984D02*
X14419706Y-12420460D01*
X14419706Y-12420460D02*
X14410182Y-12410936D01*
X14600658Y-12229984D02*
X14733991Y-12229984D01*
X14733991Y-12229984D02*
X14648277Y-12429984D01*
X14895896Y-12296650D02*
X14895896Y-12429984D01*
X14848277Y-12220460D02*
X14800658Y-12363317D01*
X14800658Y-12363317D02*
X14924467Y-12363317D01*
X14991134Y-12229984D02*
X14991134Y-12268079D01*
X15067325Y-12229984D02*
X15067325Y-12268079D01*
X15362563Y-12506174D02*
X15353039Y-12496650D01*
X15353039Y-12496650D02*
X15333991Y-12468079D01*
X15333991Y-12468079D02*
X15324468Y-12449031D01*
X15324468Y-12449031D02*
X15314944Y-12420460D01*
X15314944Y-12420460D02*
X15305420Y-12372841D01*
X15305420Y-12372841D02*
X15305420Y-12334746D01*
X15305420Y-12334746D02*
X15314944Y-12287127D01*
X15314944Y-12287127D02*
X15324468Y-12258555D01*
X15324468Y-12258555D02*
X15333991Y-12239508D01*
X15333991Y-12239508D02*
X15353039Y-12210936D01*
X15353039Y-12210936D02*
X15362563Y-12201412D01*
X15419706Y-12229984D02*
X15543515Y-12229984D01*
X15543515Y-12229984D02*
X15476848Y-12306174D01*
X15476848Y-12306174D02*
X15505420Y-12306174D01*
X15505420Y-12306174D02*
X15524468Y-12315698D01*
X15524468Y-12315698D02*
X15533991Y-12325222D01*
X15533991Y-12325222D02*
X15543515Y-12344269D01*
X15543515Y-12344269D02*
X15543515Y-12391888D01*
X15543515Y-12391888D02*
X15533991Y-12410936D01*
X15533991Y-12410936D02*
X15524468Y-12420460D01*
X15524468Y-12420460D02*
X15505420Y-12429984D01*
X15505420Y-12429984D02*
X15448277Y-12429984D01*
X15448277Y-12429984D02*
X15429229Y-12420460D01*
X15429229Y-12420460D02*
X15419706Y-12410936D01*
X15619706Y-12249031D02*
X15629229Y-12239508D01*
X15629229Y-12239508D02*
X15648277Y-12229984D01*
X15648277Y-12229984D02*
X15695896Y-12229984D01*
X15695896Y-12229984D02*
X15714944Y-12239508D01*
X15714944Y-12239508D02*
X15724468Y-12249031D01*
X15724468Y-12249031D02*
X15733991Y-12268079D01*
X15733991Y-12268079D02*
X15733991Y-12287127D01*
X15733991Y-12287127D02*
X15724468Y-12315698D01*
X15724468Y-12315698D02*
X15610182Y-12429984D01*
X15610182Y-12429984D02*
X15733991Y-12429984D01*
X15972087Y-12429984D02*
X15972087Y-12229984D01*
X16057801Y-12429984D02*
X16057801Y-12325222D01*
X16057801Y-12325222D02*
X16048277Y-12306174D01*
X16048277Y-12306174D02*
X16029230Y-12296650D01*
X16029230Y-12296650D02*
X16000658Y-12296650D01*
X16000658Y-12296650D02*
X15981610Y-12306174D01*
X15981610Y-12306174D02*
X15972087Y-12315698D01*
X16181610Y-12429984D02*
X16162563Y-12420460D01*
X16162563Y-12420460D02*
X16153039Y-12410936D01*
X16153039Y-12410936D02*
X16143515Y-12391888D01*
X16143515Y-12391888D02*
X16143515Y-12334746D01*
X16143515Y-12334746D02*
X16153039Y-12315698D01*
X16153039Y-12315698D02*
X16162563Y-12306174D01*
X16162563Y-12306174D02*
X16181610Y-12296650D01*
X16181610Y-12296650D02*
X16210182Y-12296650D01*
X16210182Y-12296650D02*
X16229230Y-12306174D01*
X16229230Y-12306174D02*
X16238753Y-12315698D01*
X16238753Y-12315698D02*
X16248277Y-12334746D01*
X16248277Y-12334746D02*
X16248277Y-12391888D01*
X16248277Y-12391888D02*
X16238753Y-12410936D01*
X16238753Y-12410936D02*
X16229230Y-12420460D01*
X16229230Y-12420460D02*
X16210182Y-12429984D01*
X16210182Y-12429984D02*
X16181610Y-12429984D01*
X16362563Y-12429984D02*
X16343515Y-12420460D01*
X16343515Y-12420460D02*
X16333991Y-12401412D01*
X16333991Y-12401412D02*
X16333991Y-12229984D01*
X16514944Y-12420460D02*
X16495896Y-12429984D01*
X16495896Y-12429984D02*
X16457801Y-12429984D01*
X16457801Y-12429984D02*
X16438753Y-12420460D01*
X16438753Y-12420460D02*
X16429230Y-12401412D01*
X16429230Y-12401412D02*
X16429230Y-12325222D01*
X16429230Y-12325222D02*
X16438753Y-12306174D01*
X16438753Y-12306174D02*
X16457801Y-12296650D01*
X16457801Y-12296650D02*
X16495896Y-12296650D01*
X16495896Y-12296650D02*
X16514944Y-12306174D01*
X16514944Y-12306174D02*
X16524468Y-12325222D01*
X16524468Y-12325222D02*
X16524468Y-12344269D01*
X16524468Y-12344269D02*
X16429230Y-12363317D01*
X16600658Y-12420460D02*
X16619706Y-12429984D01*
X16619706Y-12429984D02*
X16657801Y-12429984D01*
X16657801Y-12429984D02*
X16676849Y-12420460D01*
X16676849Y-12420460D02*
X16686372Y-12401412D01*
X16686372Y-12401412D02*
X16686372Y-12391888D01*
X16686372Y-12391888D02*
X16676849Y-12372841D01*
X16676849Y-12372841D02*
X16657801Y-12363317D01*
X16657801Y-12363317D02*
X16629230Y-12363317D01*
X16629230Y-12363317D02*
X16610182Y-12353793D01*
X16610182Y-12353793D02*
X16600658Y-12334746D01*
X16600658Y-12334746D02*
X16600658Y-12325222D01*
X16600658Y-12325222D02*
X16610182Y-12306174D01*
X16610182Y-12306174D02*
X16629230Y-12296650D01*
X16629230Y-12296650D02*
X16657801Y-12296650D01*
X16657801Y-12296650D02*
X16676849Y-12306174D01*
X16753039Y-12506174D02*
X16762563Y-12496650D01*
X16762563Y-12496650D02*
X16781611Y-12468079D01*
X16781611Y-12468079D02*
X16791134Y-12449031D01*
X16791134Y-12449031D02*
X16800658Y-12420460D01*
X16800658Y-12420460D02*
X16810182Y-12372841D01*
X16810182Y-12372841D02*
X16810182Y-12334746D01*
X16810182Y-12334746D02*
X16800658Y-12287127D01*
X16800658Y-12287127D02*
X16791134Y-12258555D01*
X16791134Y-12258555D02*
X16781611Y-12239508D01*
X16781611Y-12239508D02*
X16762563Y-12210936D01*
X16762563Y-12210936D02*
X16753039Y-12201412D01*
M02*
