M48
; DRILL file {KiCad 9.0.0} date 2025-08-24T13:42:27+0200
; FORMAT={-:-/ absolute / metric / decimal}
; #@! TF.CreationDate,2025-08-24T13:42:27+02:00
; #@! TF.GenerationSoftware,Kicad,Pcbnew,9.0.0
; #@! TF.FileFunction,Plated,1,2,PTH
FMAT,2
METRIC
; #@! TA.AperFunction,Plated,PTH,ViaDrill
T1C0.300
; #@! TA.AperFunction,Plated,PTH,ViaDrill
T2C0.400
; #@! TA.AperFunction,Plated,PTH,ComponentDrill
T3C0.800
; #@! TA.AperFunction,Plated,PTH,ComponentDrill
T4C0.850
; #@! TA.AperFunction,Plated,PTH,ComponentDrill
T5C0.950
%
G90
G05
T1
X121.95Y-75.35
X122.95Y-74.5
X123.95Y-73.55
X125.95Y-71.7
X125.95Y-72.75
X128.0Y-71.9
X129.35Y-72.961
X134.0Y-72.2
X134.5Y-83.4
T2
X142.6Y-88.45
X145.4Y-88.45
T3
X138.55Y-78.0
X138.55Y-80.0
X140.55Y-78.0
X140.55Y-80.0
X142.55Y-78.0
X142.55Y-80.0
X144.55Y-78.0
X144.55Y-80.0
X146.55Y-78.0
X146.55Y-80.0
X148.55Y-78.0
X148.55Y-80.0
X150.55Y-78.0
X150.55Y-80.0
X152.55Y-78.0
X152.55Y-80.0
T4
X121.95Y-77.95
X121.95Y-79.95
X123.95Y-77.95
X123.95Y-79.95
X125.95Y-77.95
X125.95Y-79.95
X127.95Y-77.95
X127.95Y-79.95
X129.95Y-77.95
X129.95Y-79.95
T5
X121.9Y-83.75
X121.9Y-86.25
X123.7Y-83.75
X123.7Y-86.25
X125.5Y-83.75
X125.5Y-86.25
X127.3Y-83.75
X127.3Y-86.25
X129.1Y-83.75
X129.1Y-86.25
X130.9Y-83.75
X130.9Y-86.25
X132.7Y-83.75
X132.7Y-86.25
X134.5Y-86.25
X136.3Y-86.25
X138.1Y-86.25
X139.9Y-86.25
X141.7Y-83.75
X141.7Y-86.25
X143.5Y-83.75
X143.5Y-86.25
X145.3Y-83.75
X145.3Y-86.25
X147.1Y-83.75
X147.1Y-86.25
X148.9Y-83.75
X148.9Y-86.25
X150.7Y-83.75
X150.7Y-86.25
X152.5Y-83.75
X152.5Y-86.25
M30
