%TF.GenerationSoftware,KiCad,Pcbnew,9.0.0*%
%TF.CreationDate,2025-08-24T13:42:27+02:00*%
%TF.ProjectId,Rivian-A,52697669-616e-42d4-912e-6b696361645f,rev?*%
%TF.SameCoordinates,Original*%
%TF.FileFunction,Drillmap*%
%TF.FilePolarity,Positive*%
%FSLAX45Y45*%
G04 Gerber Fmt 4.5, Leading zero omitted, Abs format (unit mm)*
G04 Created by KiCad (PCBNEW 9.0.0) date 2025-08-24 13:42:27*
%MOMM*%
%LPD*%
G01*
G04 APERTURE LIST*
%ADD10C,0.050000*%
%ADD11C,0.200000*%
%ADD12C,0.125000*%
G04 APERTURE END LIST*
D10*
X15500000Y-7030000D02*
G75*
G02*
X15650000Y-7180000I0J-150000D01*
G01*
X15650000Y-10490000D02*
G75*
G02*
X15500000Y-10640000I-150000J0D01*
G01*
X11790000Y-7180000D02*
G75*
G02*
X11940000Y-7030000I150000J0D01*
G01*
X11940000Y-10640000D02*
G75*
G02*
X11790000Y-10490000I0J150000D01*
G01*
X15650000Y-7180000D02*
X15650000Y-10490000D01*
X11940000Y-7030000D02*
X15500000Y-7030000D01*
X15500000Y-10640000D02*
X11940000Y-10640000D01*
X11790000Y-10490000D02*
X11790000Y-7180000D01*
D11*
D12*
X11945000Y-8617500D02*
X12070000Y-8742500D01*
X12070000Y-8617500D02*
X11945000Y-8742500D01*
X15370000Y-8617500D02*
X15495000Y-8742500D01*
X15495000Y-8617500D02*
X15370000Y-8742500D01*
D11*
X12048277Y-10953984D02*
X12048277Y-10753984D01*
X12048277Y-10753984D02*
X12095896Y-10753984D01*
X12095896Y-10753984D02*
X12124467Y-10763508D01*
X12124467Y-10763508D02*
X12143515Y-10782555D01*
X12143515Y-10782555D02*
X12153039Y-10801603D01*
X12153039Y-10801603D02*
X12162562Y-10839698D01*
X12162562Y-10839698D02*
X12162562Y-10868270D01*
X12162562Y-10868270D02*
X12153039Y-10906365D01*
X12153039Y-10906365D02*
X12143515Y-10925412D01*
X12143515Y-10925412D02*
X12124467Y-10944460D01*
X12124467Y-10944460D02*
X12095896Y-10953984D01*
X12095896Y-10953984D02*
X12048277Y-10953984D01*
X12248277Y-10953984D02*
X12248277Y-10820650D01*
X12248277Y-10858746D02*
X12257801Y-10839698D01*
X12257801Y-10839698D02*
X12267324Y-10830174D01*
X12267324Y-10830174D02*
X12286372Y-10820650D01*
X12286372Y-10820650D02*
X12305420Y-10820650D01*
X12372086Y-10953984D02*
X12372086Y-10820650D01*
X12372086Y-10753984D02*
X12362562Y-10763508D01*
X12362562Y-10763508D02*
X12372086Y-10773031D01*
X12372086Y-10773031D02*
X12381610Y-10763508D01*
X12381610Y-10763508D02*
X12372086Y-10753984D01*
X12372086Y-10753984D02*
X12372086Y-10773031D01*
X12495896Y-10953984D02*
X12476848Y-10944460D01*
X12476848Y-10944460D02*
X12467324Y-10925412D01*
X12467324Y-10925412D02*
X12467324Y-10753984D01*
X12600658Y-10953984D02*
X12581610Y-10944460D01*
X12581610Y-10944460D02*
X12572086Y-10925412D01*
X12572086Y-10925412D02*
X12572086Y-10753984D01*
X12829229Y-10953984D02*
X12829229Y-10753984D01*
X12829229Y-10753984D02*
X12895896Y-10896841D01*
X12895896Y-10896841D02*
X12962562Y-10753984D01*
X12962562Y-10753984D02*
X12962562Y-10953984D01*
X13143515Y-10953984D02*
X13143515Y-10849222D01*
X13143515Y-10849222D02*
X13133991Y-10830174D01*
X13133991Y-10830174D02*
X13114943Y-10820650D01*
X13114943Y-10820650D02*
X13076848Y-10820650D01*
X13076848Y-10820650D02*
X13057801Y-10830174D01*
X13143515Y-10944460D02*
X13124467Y-10953984D01*
X13124467Y-10953984D02*
X13076848Y-10953984D01*
X13076848Y-10953984D02*
X13057801Y-10944460D01*
X13057801Y-10944460D02*
X13048277Y-10925412D01*
X13048277Y-10925412D02*
X13048277Y-10906365D01*
X13048277Y-10906365D02*
X13057801Y-10887317D01*
X13057801Y-10887317D02*
X13076848Y-10877793D01*
X13076848Y-10877793D02*
X13124467Y-10877793D01*
X13124467Y-10877793D02*
X13143515Y-10868270D01*
X13238753Y-10820650D02*
X13238753Y-11020650D01*
X13238753Y-10830174D02*
X13257801Y-10820650D01*
X13257801Y-10820650D02*
X13295896Y-10820650D01*
X13295896Y-10820650D02*
X13314943Y-10830174D01*
X13314943Y-10830174D02*
X13324467Y-10839698D01*
X13324467Y-10839698D02*
X13333991Y-10858746D01*
X13333991Y-10858746D02*
X13333991Y-10915889D01*
X13333991Y-10915889D02*
X13324467Y-10934936D01*
X13324467Y-10934936D02*
X13314943Y-10944460D01*
X13314943Y-10944460D02*
X13295896Y-10953984D01*
X13295896Y-10953984D02*
X13257801Y-10953984D01*
X13257801Y-10953984D02*
X13238753Y-10944460D01*
X13419705Y-10934936D02*
X13429229Y-10944460D01*
X13429229Y-10944460D02*
X13419705Y-10953984D01*
X13419705Y-10953984D02*
X13410182Y-10944460D01*
X13410182Y-10944460D02*
X13419705Y-10934936D01*
X13419705Y-10934936D02*
X13419705Y-10953984D01*
X13419705Y-10830174D02*
X13429229Y-10839698D01*
X13429229Y-10839698D02*
X13419705Y-10849222D01*
X13419705Y-10849222D02*
X13410182Y-10839698D01*
X13410182Y-10839698D02*
X13419705Y-10830174D01*
X13419705Y-10830174D02*
X13419705Y-10849222D01*
D12*
X11662500Y-11220000D02*
X11787500Y-11345000D01*
X11787500Y-11220000D02*
X11662500Y-11345000D01*
D11*
X12153039Y-11373984D02*
X12038753Y-11373984D01*
X12095896Y-11373984D02*
X12095896Y-11173984D01*
X12095896Y-11173984D02*
X12076848Y-11202555D01*
X12076848Y-11202555D02*
X12057801Y-11221603D01*
X12057801Y-11221603D02*
X12038753Y-11231127D01*
X12238753Y-11354936D02*
X12248277Y-11364460D01*
X12248277Y-11364460D02*
X12238753Y-11373984D01*
X12238753Y-11373984D02*
X12229229Y-11364460D01*
X12229229Y-11364460D02*
X12238753Y-11354936D01*
X12238753Y-11354936D02*
X12238753Y-11373984D01*
X12324467Y-11193031D02*
X12333991Y-11183508D01*
X12333991Y-11183508D02*
X12353039Y-11173984D01*
X12353039Y-11173984D02*
X12400658Y-11173984D01*
X12400658Y-11173984D02*
X12419705Y-11183508D01*
X12419705Y-11183508D02*
X12429229Y-11193031D01*
X12429229Y-11193031D02*
X12438753Y-11212079D01*
X12438753Y-11212079D02*
X12438753Y-11231127D01*
X12438753Y-11231127D02*
X12429229Y-11259698D01*
X12429229Y-11259698D02*
X12314943Y-11373984D01*
X12314943Y-11373984D02*
X12438753Y-11373984D01*
X12619705Y-11173984D02*
X12524467Y-11173984D01*
X12524467Y-11173984D02*
X12514943Y-11269222D01*
X12514943Y-11269222D02*
X12524467Y-11259698D01*
X12524467Y-11259698D02*
X12543515Y-11250174D01*
X12543515Y-11250174D02*
X12591134Y-11250174D01*
X12591134Y-11250174D02*
X12610182Y-11259698D01*
X12610182Y-11259698D02*
X12619705Y-11269222D01*
X12619705Y-11269222D02*
X12629229Y-11288269D01*
X12629229Y-11288269D02*
X12629229Y-11335888D01*
X12629229Y-11335888D02*
X12619705Y-11354936D01*
X12619705Y-11354936D02*
X12610182Y-11364460D01*
X12610182Y-11364460D02*
X12591134Y-11373984D01*
X12591134Y-11373984D02*
X12543515Y-11373984D01*
X12543515Y-11373984D02*
X12524467Y-11364460D01*
X12524467Y-11364460D02*
X12514943Y-11354936D01*
X12753039Y-11173984D02*
X12772086Y-11173984D01*
X12772086Y-11173984D02*
X12791134Y-11183508D01*
X12791134Y-11183508D02*
X12800658Y-11193031D01*
X12800658Y-11193031D02*
X12810182Y-11212079D01*
X12810182Y-11212079D02*
X12819705Y-11250174D01*
X12819705Y-11250174D02*
X12819705Y-11297793D01*
X12819705Y-11297793D02*
X12810182Y-11335888D01*
X12810182Y-11335888D02*
X12800658Y-11354936D01*
X12800658Y-11354936D02*
X12791134Y-11364460D01*
X12791134Y-11364460D02*
X12772086Y-11373984D01*
X12772086Y-11373984D02*
X12753039Y-11373984D01*
X12753039Y-11373984D02*
X12733991Y-11364460D01*
X12733991Y-11364460D02*
X12724467Y-11354936D01*
X12724467Y-11354936D02*
X12714943Y-11335888D01*
X12714943Y-11335888D02*
X12705420Y-11297793D01*
X12705420Y-11297793D02*
X12705420Y-11250174D01*
X12705420Y-11250174D02*
X12714943Y-11212079D01*
X12714943Y-11212079D02*
X12724467Y-11193031D01*
X12724467Y-11193031D02*
X12733991Y-11183508D01*
X12733991Y-11183508D02*
X12753039Y-11173984D01*
X12905420Y-11373984D02*
X12905420Y-11240650D01*
X12905420Y-11259698D02*
X12914943Y-11250174D01*
X12914943Y-11250174D02*
X12933991Y-11240650D01*
X12933991Y-11240650D02*
X12962563Y-11240650D01*
X12962563Y-11240650D02*
X12981610Y-11250174D01*
X12981610Y-11250174D02*
X12991134Y-11269222D01*
X12991134Y-11269222D02*
X12991134Y-11373984D01*
X12991134Y-11269222D02*
X13000658Y-11250174D01*
X13000658Y-11250174D02*
X13019705Y-11240650D01*
X13019705Y-11240650D02*
X13048277Y-11240650D01*
X13048277Y-11240650D02*
X13067324Y-11250174D01*
X13067324Y-11250174D02*
X13076848Y-11269222D01*
X13076848Y-11269222D02*
X13076848Y-11373984D01*
X13172086Y-11373984D02*
X13172086Y-11240650D01*
X13172086Y-11259698D02*
X13181610Y-11250174D01*
X13181610Y-11250174D02*
X13200658Y-11240650D01*
X13200658Y-11240650D02*
X13229229Y-11240650D01*
X13229229Y-11240650D02*
X13248277Y-11250174D01*
X13248277Y-11250174D02*
X13257801Y-11269222D01*
X13257801Y-11269222D02*
X13257801Y-11373984D01*
X13257801Y-11269222D02*
X13267324Y-11250174D01*
X13267324Y-11250174D02*
X13286372Y-11240650D01*
X13286372Y-11240650D02*
X13314943Y-11240650D01*
X13314943Y-11240650D02*
X13333991Y-11250174D01*
X13333991Y-11250174D02*
X13343515Y-11269222D01*
X13343515Y-11269222D02*
X13343515Y-11373984D01*
X13733991Y-11164460D02*
X13562563Y-11421603D01*
X13991134Y-11173984D02*
X14010182Y-11173984D01*
X14010182Y-11173984D02*
X14029229Y-11183508D01*
X14029229Y-11183508D02*
X14038753Y-11193031D01*
X14038753Y-11193031D02*
X14048277Y-11212079D01*
X14048277Y-11212079D02*
X14057801Y-11250174D01*
X14057801Y-11250174D02*
X14057801Y-11297793D01*
X14057801Y-11297793D02*
X14048277Y-11335888D01*
X14048277Y-11335888D02*
X14038753Y-11354936D01*
X14038753Y-11354936D02*
X14029229Y-11364460D01*
X14029229Y-11364460D02*
X14010182Y-11373984D01*
X14010182Y-11373984D02*
X13991134Y-11373984D01*
X13991134Y-11373984D02*
X13972086Y-11364460D01*
X13972086Y-11364460D02*
X13962563Y-11354936D01*
X13962563Y-11354936D02*
X13953039Y-11335888D01*
X13953039Y-11335888D02*
X13943515Y-11297793D01*
X13943515Y-11297793D02*
X13943515Y-11250174D01*
X13943515Y-11250174D02*
X13953039Y-11212079D01*
X13953039Y-11212079D02*
X13962563Y-11193031D01*
X13962563Y-11193031D02*
X13972086Y-11183508D01*
X13972086Y-11183508D02*
X13991134Y-11173984D01*
X14143515Y-11354936D02*
X14153039Y-11364460D01*
X14153039Y-11364460D02*
X14143515Y-11373984D01*
X14143515Y-11373984D02*
X14133991Y-11364460D01*
X14133991Y-11364460D02*
X14143515Y-11354936D01*
X14143515Y-11354936D02*
X14143515Y-11373984D01*
X14276848Y-11173984D02*
X14295896Y-11173984D01*
X14295896Y-11173984D02*
X14314944Y-11183508D01*
X14314944Y-11183508D02*
X14324467Y-11193031D01*
X14324467Y-11193031D02*
X14333991Y-11212079D01*
X14333991Y-11212079D02*
X14343515Y-11250174D01*
X14343515Y-11250174D02*
X14343515Y-11297793D01*
X14343515Y-11297793D02*
X14333991Y-11335888D01*
X14333991Y-11335888D02*
X14324467Y-11354936D01*
X14324467Y-11354936D02*
X14314944Y-11364460D01*
X14314944Y-11364460D02*
X14295896Y-11373984D01*
X14295896Y-11373984D02*
X14276848Y-11373984D01*
X14276848Y-11373984D02*
X14257801Y-11364460D01*
X14257801Y-11364460D02*
X14248277Y-11354936D01*
X14248277Y-11354936D02*
X14238753Y-11335888D01*
X14238753Y-11335888D02*
X14229229Y-11297793D01*
X14229229Y-11297793D02*
X14229229Y-11250174D01*
X14229229Y-11250174D02*
X14238753Y-11212079D01*
X14238753Y-11212079D02*
X14248277Y-11193031D01*
X14248277Y-11193031D02*
X14257801Y-11183508D01*
X14257801Y-11183508D02*
X14276848Y-11173984D01*
X14514944Y-11240650D02*
X14514944Y-11373984D01*
X14467325Y-11164460D02*
X14419706Y-11307317D01*
X14419706Y-11307317D02*
X14543515Y-11307317D01*
X14629229Y-11373984D02*
X14667325Y-11373984D01*
X14667325Y-11373984D02*
X14686372Y-11364460D01*
X14686372Y-11364460D02*
X14695896Y-11354936D01*
X14695896Y-11354936D02*
X14714944Y-11326365D01*
X14714944Y-11326365D02*
X14724467Y-11288269D01*
X14724467Y-11288269D02*
X14724467Y-11212079D01*
X14724467Y-11212079D02*
X14714944Y-11193031D01*
X14714944Y-11193031D02*
X14705420Y-11183508D01*
X14705420Y-11183508D02*
X14686372Y-11173984D01*
X14686372Y-11173984D02*
X14648277Y-11173984D01*
X14648277Y-11173984D02*
X14629229Y-11183508D01*
X14629229Y-11183508D02*
X14619706Y-11193031D01*
X14619706Y-11193031D02*
X14610182Y-11212079D01*
X14610182Y-11212079D02*
X14610182Y-11259698D01*
X14610182Y-11259698D02*
X14619706Y-11278746D01*
X14619706Y-11278746D02*
X14629229Y-11288269D01*
X14629229Y-11288269D02*
X14648277Y-11297793D01*
X14648277Y-11297793D02*
X14686372Y-11297793D01*
X14686372Y-11297793D02*
X14705420Y-11288269D01*
X14705420Y-11288269D02*
X14714944Y-11278746D01*
X14714944Y-11278746D02*
X14724467Y-11259698D01*
X14800658Y-11193031D02*
X14810182Y-11183508D01*
X14810182Y-11183508D02*
X14829229Y-11173984D01*
X14829229Y-11173984D02*
X14876848Y-11173984D01*
X14876848Y-11173984D02*
X14895896Y-11183508D01*
X14895896Y-11183508D02*
X14905420Y-11193031D01*
X14905420Y-11193031D02*
X14914944Y-11212079D01*
X14914944Y-11212079D02*
X14914944Y-11231127D01*
X14914944Y-11231127D02*
X14905420Y-11259698D01*
X14905420Y-11259698D02*
X14791134Y-11373984D01*
X14791134Y-11373984D02*
X14914944Y-11373984D01*
X14991134Y-11173984D02*
X14991134Y-11212079D01*
X15067325Y-11173984D02*
X15067325Y-11212079D01*
X15362563Y-11450174D02*
X15353039Y-11440650D01*
X15353039Y-11440650D02*
X15333991Y-11412079D01*
X15333991Y-11412079D02*
X15324468Y-11393031D01*
X15324468Y-11393031D02*
X15314944Y-11364460D01*
X15314944Y-11364460D02*
X15305420Y-11316841D01*
X15305420Y-11316841D02*
X15305420Y-11278746D01*
X15305420Y-11278746D02*
X15314944Y-11231127D01*
X15314944Y-11231127D02*
X15324468Y-11202555D01*
X15324468Y-11202555D02*
X15333991Y-11183508D01*
X15333991Y-11183508D02*
X15353039Y-11154936D01*
X15353039Y-11154936D02*
X15362563Y-11145412D01*
X15429229Y-11193031D02*
X15438753Y-11183508D01*
X15438753Y-11183508D02*
X15457801Y-11173984D01*
X15457801Y-11173984D02*
X15505420Y-11173984D01*
X15505420Y-11173984D02*
X15524468Y-11183508D01*
X15524468Y-11183508D02*
X15533991Y-11193031D01*
X15533991Y-11193031D02*
X15543515Y-11212079D01*
X15543515Y-11212079D02*
X15543515Y-11231127D01*
X15543515Y-11231127D02*
X15533991Y-11259698D01*
X15533991Y-11259698D02*
X15419706Y-11373984D01*
X15419706Y-11373984D02*
X15543515Y-11373984D01*
X15781610Y-11373984D02*
X15781610Y-11173984D01*
X15867325Y-11373984D02*
X15867325Y-11269222D01*
X15867325Y-11269222D02*
X15857801Y-11250174D01*
X15857801Y-11250174D02*
X15838753Y-11240650D01*
X15838753Y-11240650D02*
X15810182Y-11240650D01*
X15810182Y-11240650D02*
X15791134Y-11250174D01*
X15791134Y-11250174D02*
X15781610Y-11259698D01*
X15991134Y-11373984D02*
X15972087Y-11364460D01*
X15972087Y-11364460D02*
X15962563Y-11354936D01*
X15962563Y-11354936D02*
X15953039Y-11335888D01*
X15953039Y-11335888D02*
X15953039Y-11278746D01*
X15953039Y-11278746D02*
X15962563Y-11259698D01*
X15962563Y-11259698D02*
X15972087Y-11250174D01*
X15972087Y-11250174D02*
X15991134Y-11240650D01*
X15991134Y-11240650D02*
X16019706Y-11240650D01*
X16019706Y-11240650D02*
X16038753Y-11250174D01*
X16038753Y-11250174D02*
X16048277Y-11259698D01*
X16048277Y-11259698D02*
X16057801Y-11278746D01*
X16057801Y-11278746D02*
X16057801Y-11335888D01*
X16057801Y-11335888D02*
X16048277Y-11354936D01*
X16048277Y-11354936D02*
X16038753Y-11364460D01*
X16038753Y-11364460D02*
X16019706Y-11373984D01*
X16019706Y-11373984D02*
X15991134Y-11373984D01*
X16172087Y-11373984D02*
X16153039Y-11364460D01*
X16153039Y-11364460D02*
X16143515Y-11345412D01*
X16143515Y-11345412D02*
X16143515Y-11173984D01*
X16324468Y-11364460D02*
X16305420Y-11373984D01*
X16305420Y-11373984D02*
X16267325Y-11373984D01*
X16267325Y-11373984D02*
X16248277Y-11364460D01*
X16248277Y-11364460D02*
X16238753Y-11345412D01*
X16238753Y-11345412D02*
X16238753Y-11269222D01*
X16238753Y-11269222D02*
X16248277Y-11250174D01*
X16248277Y-11250174D02*
X16267325Y-11240650D01*
X16267325Y-11240650D02*
X16305420Y-11240650D01*
X16305420Y-11240650D02*
X16324468Y-11250174D01*
X16324468Y-11250174D02*
X16333991Y-11269222D01*
X16333991Y-11269222D02*
X16333991Y-11288269D01*
X16333991Y-11288269D02*
X16238753Y-11307317D01*
X16410182Y-11364460D02*
X16429230Y-11373984D01*
X16429230Y-11373984D02*
X16467325Y-11373984D01*
X16467325Y-11373984D02*
X16486372Y-11364460D01*
X16486372Y-11364460D02*
X16495896Y-11345412D01*
X16495896Y-11345412D02*
X16495896Y-11335888D01*
X16495896Y-11335888D02*
X16486372Y-11316841D01*
X16486372Y-11316841D02*
X16467325Y-11307317D01*
X16467325Y-11307317D02*
X16438753Y-11307317D01*
X16438753Y-11307317D02*
X16419706Y-11297793D01*
X16419706Y-11297793D02*
X16410182Y-11278746D01*
X16410182Y-11278746D02*
X16410182Y-11269222D01*
X16410182Y-11269222D02*
X16419706Y-11250174D01*
X16419706Y-11250174D02*
X16438753Y-11240650D01*
X16438753Y-11240650D02*
X16467325Y-11240650D01*
X16467325Y-11240650D02*
X16486372Y-11250174D01*
X16562563Y-11450174D02*
X16572087Y-11440650D01*
X16572087Y-11440650D02*
X16591134Y-11412079D01*
X16591134Y-11412079D02*
X16600658Y-11393031D01*
X16600658Y-11393031D02*
X16610182Y-11364460D01*
X16610182Y-11364460D02*
X16619706Y-11316841D01*
X16619706Y-11316841D02*
X16619706Y-11278746D01*
X16619706Y-11278746D02*
X16610182Y-11231127D01*
X16610182Y-11231127D02*
X16600658Y-11202555D01*
X16600658Y-11202555D02*
X16591134Y-11183508D01*
X16591134Y-11183508D02*
X16572087Y-11154936D01*
X16572087Y-11154936D02*
X16562563Y-11145412D01*
X16924468Y-11450174D02*
X16914944Y-11440650D01*
X16914944Y-11440650D02*
X16895896Y-11412079D01*
X16895896Y-11412079D02*
X16886373Y-11393031D01*
X16886373Y-11393031D02*
X16876849Y-11364460D01*
X16876849Y-11364460D02*
X16867325Y-11316841D01*
X16867325Y-11316841D02*
X16867325Y-11278746D01*
X16867325Y-11278746D02*
X16876849Y-11231127D01*
X16876849Y-11231127D02*
X16886373Y-11202555D01*
X16886373Y-11202555D02*
X16895896Y-11183508D01*
X16895896Y-11183508D02*
X16914944Y-11154936D01*
X16914944Y-11154936D02*
X16924468Y-11145412D01*
X17000658Y-11240650D02*
X17000658Y-11373984D01*
X17000658Y-11259698D02*
X17010182Y-11250174D01*
X17010182Y-11250174D02*
X17029230Y-11240650D01*
X17029230Y-11240650D02*
X17057801Y-11240650D01*
X17057801Y-11240650D02*
X17076849Y-11250174D01*
X17076849Y-11250174D02*
X17086373Y-11269222D01*
X17086373Y-11269222D02*
X17086373Y-11373984D01*
X17210182Y-11373984D02*
X17191134Y-11364460D01*
X17191134Y-11364460D02*
X17181611Y-11354936D01*
X17181611Y-11354936D02*
X17172087Y-11335888D01*
X17172087Y-11335888D02*
X17172087Y-11278746D01*
X17172087Y-11278746D02*
X17181611Y-11259698D01*
X17181611Y-11259698D02*
X17191134Y-11250174D01*
X17191134Y-11250174D02*
X17210182Y-11240650D01*
X17210182Y-11240650D02*
X17238754Y-11240650D01*
X17238754Y-11240650D02*
X17257801Y-11250174D01*
X17257801Y-11250174D02*
X17267325Y-11259698D01*
X17267325Y-11259698D02*
X17276849Y-11278746D01*
X17276849Y-11278746D02*
X17276849Y-11335888D01*
X17276849Y-11335888D02*
X17267325Y-11354936D01*
X17267325Y-11354936D02*
X17257801Y-11364460D01*
X17257801Y-11364460D02*
X17238754Y-11373984D01*
X17238754Y-11373984D02*
X17210182Y-11373984D01*
X17333992Y-11240650D02*
X17410182Y-11240650D01*
X17362563Y-11173984D02*
X17362563Y-11345412D01*
X17362563Y-11345412D02*
X17372087Y-11364460D01*
X17372087Y-11364460D02*
X17391134Y-11373984D01*
X17391134Y-11373984D02*
X17410182Y-11373984D01*
X17629230Y-11240650D02*
X17629230Y-11440650D01*
X17629230Y-11250174D02*
X17648277Y-11240650D01*
X17648277Y-11240650D02*
X17686373Y-11240650D01*
X17686373Y-11240650D02*
X17705420Y-11250174D01*
X17705420Y-11250174D02*
X17714944Y-11259698D01*
X17714944Y-11259698D02*
X17724468Y-11278746D01*
X17724468Y-11278746D02*
X17724468Y-11335888D01*
X17724468Y-11335888D02*
X17714944Y-11354936D01*
X17714944Y-11354936D02*
X17705420Y-11364460D01*
X17705420Y-11364460D02*
X17686373Y-11373984D01*
X17686373Y-11373984D02*
X17648277Y-11373984D01*
X17648277Y-11373984D02*
X17629230Y-11364460D01*
X17838754Y-11373984D02*
X17819706Y-11364460D01*
X17819706Y-11364460D02*
X17810182Y-11345412D01*
X17810182Y-11345412D02*
X17810182Y-11173984D01*
X18000658Y-11373984D02*
X18000658Y-11269222D01*
X18000658Y-11269222D02*
X17991135Y-11250174D01*
X17991135Y-11250174D02*
X17972087Y-11240650D01*
X17972087Y-11240650D02*
X17933992Y-11240650D01*
X17933992Y-11240650D02*
X17914944Y-11250174D01*
X18000658Y-11364460D02*
X17981611Y-11373984D01*
X17981611Y-11373984D02*
X17933992Y-11373984D01*
X17933992Y-11373984D02*
X17914944Y-11364460D01*
X17914944Y-11364460D02*
X17905420Y-11345412D01*
X17905420Y-11345412D02*
X17905420Y-11326365D01*
X17905420Y-11326365D02*
X17914944Y-11307317D01*
X17914944Y-11307317D02*
X17933992Y-11297793D01*
X17933992Y-11297793D02*
X17981611Y-11297793D01*
X17981611Y-11297793D02*
X18000658Y-11288269D01*
X18067325Y-11240650D02*
X18143515Y-11240650D01*
X18095896Y-11173984D02*
X18095896Y-11345412D01*
X18095896Y-11345412D02*
X18105420Y-11364460D01*
X18105420Y-11364460D02*
X18124468Y-11373984D01*
X18124468Y-11373984D02*
X18143515Y-11373984D01*
X18286373Y-11364460D02*
X18267325Y-11373984D01*
X18267325Y-11373984D02*
X18229230Y-11373984D01*
X18229230Y-11373984D02*
X18210182Y-11364460D01*
X18210182Y-11364460D02*
X18200658Y-11345412D01*
X18200658Y-11345412D02*
X18200658Y-11269222D01*
X18200658Y-11269222D02*
X18210182Y-11250174D01*
X18210182Y-11250174D02*
X18229230Y-11240650D01*
X18229230Y-11240650D02*
X18267325Y-11240650D01*
X18267325Y-11240650D02*
X18286373Y-11250174D01*
X18286373Y-11250174D02*
X18295896Y-11269222D01*
X18295896Y-11269222D02*
X18295896Y-11288269D01*
X18295896Y-11288269D02*
X18200658Y-11307317D01*
X18467325Y-11373984D02*
X18467325Y-11173984D01*
X18467325Y-11364460D02*
X18448277Y-11373984D01*
X18448277Y-11373984D02*
X18410182Y-11373984D01*
X18410182Y-11373984D02*
X18391135Y-11364460D01*
X18391135Y-11364460D02*
X18381611Y-11354936D01*
X18381611Y-11354936D02*
X18372087Y-11335888D01*
X18372087Y-11335888D02*
X18372087Y-11278746D01*
X18372087Y-11278746D02*
X18381611Y-11259698D01*
X18381611Y-11259698D02*
X18391135Y-11250174D01*
X18391135Y-11250174D02*
X18410182Y-11240650D01*
X18410182Y-11240650D02*
X18448277Y-11240650D01*
X18448277Y-11240650D02*
X18467325Y-11250174D01*
X18543516Y-11450174D02*
X18553039Y-11440650D01*
X18553039Y-11440650D02*
X18572087Y-11412079D01*
X18572087Y-11412079D02*
X18581611Y-11393031D01*
X18581611Y-11393031D02*
X18591135Y-11364460D01*
X18591135Y-11364460D02*
X18600658Y-11316841D01*
X18600658Y-11316841D02*
X18600658Y-11278746D01*
X18600658Y-11278746D02*
X18591135Y-11231127D01*
X18591135Y-11231127D02*
X18581611Y-11202555D01*
X18581611Y-11202555D02*
X18572087Y-11183508D01*
X18572087Y-11183508D02*
X18553039Y-11154936D01*
X18553039Y-11154936D02*
X18543516Y-11145412D01*
M02*
