G04 #@! TF.GenerationSoftware,KiCad,Pcbnew,9.0.0*
G04 #@! TF.CreationDate,2025-08-24T13:43:37+02:00*
G04 #@! TF.ProjectId,Rivian-A,52697669-616e-42d4-912e-6b696361645f,rev?*
G04 #@! TF.SameCoordinates,Original*
G04 #@! TF.FileFunction,Legend,Bot*
G04 #@! TF.FilePolarity,Positive*
%FSLAX46Y46*%
G04 Gerber Fmt 4.6, Leading zero omitted, Abs format (unit mm)*
G04 Created by KiCad (PCBNEW 9.0.0) date 2025-08-24 13:43:37*
%MOMM*%
%LPD*%
G01*
G04 APERTURE LIST*
%ADD10C,0.150000*%
%ADD11C,0.200000*%
%ADD12C,0.000000*%
%ADD13C,1.200000*%
%ADD14R,1.200000X1.350000*%
%ADD15C,1.250000*%
%ADD16R,1.478000X1.478000*%
%ADD17C,1.478000*%
%ADD18C,1.381000*%
%ADD19R,1.381000X1.381000*%
G04 APERTURE END LIST*
D10*
X154091792Y-100869819D02*
X154425125Y-100393628D01*
X154663220Y-100869819D02*
X154663220Y-99869819D01*
X154663220Y-99869819D02*
X154282268Y-99869819D01*
X154282268Y-99869819D02*
X154187030Y-99917438D01*
X154187030Y-99917438D02*
X154139411Y-99965057D01*
X154139411Y-99965057D02*
X154091792Y-100060295D01*
X154091792Y-100060295D02*
X154091792Y-100203152D01*
X154091792Y-100203152D02*
X154139411Y-100298390D01*
X154139411Y-100298390D02*
X154187030Y-100346009D01*
X154187030Y-100346009D02*
X154282268Y-100393628D01*
X154282268Y-100393628D02*
X154663220Y-100393628D01*
X153282268Y-100822200D02*
X153377506Y-100869819D01*
X153377506Y-100869819D02*
X153567982Y-100869819D01*
X153567982Y-100869819D02*
X153663220Y-100822200D01*
X153663220Y-100822200D02*
X153710839Y-100726961D01*
X153710839Y-100726961D02*
X153710839Y-100346009D01*
X153710839Y-100346009D02*
X153663220Y-100250771D01*
X153663220Y-100250771D02*
X153567982Y-100203152D01*
X153567982Y-100203152D02*
X153377506Y-100203152D01*
X153377506Y-100203152D02*
X153282268Y-100250771D01*
X153282268Y-100250771D02*
X153234649Y-100346009D01*
X153234649Y-100346009D02*
X153234649Y-100441247D01*
X153234649Y-100441247D02*
X153710839Y-100536485D01*
X152901315Y-100203152D02*
X152663220Y-100869819D01*
X152663220Y-100869819D02*
X152425125Y-100203152D01*
X152044172Y-100774580D02*
X151996553Y-100822200D01*
X151996553Y-100822200D02*
X152044172Y-100869819D01*
X152044172Y-100869819D02*
X152091791Y-100822200D01*
X152091791Y-100822200D02*
X152044172Y-100774580D01*
X152044172Y-100774580D02*
X152044172Y-100869819D01*
X150282268Y-100869819D02*
X150853696Y-100869819D01*
X150567982Y-100869819D02*
X150567982Y-99869819D01*
X150567982Y-99869819D02*
X150663220Y-100012676D01*
X150663220Y-100012676D02*
X150758458Y-100107914D01*
X150758458Y-100107914D02*
X150853696Y-100155533D01*
X149853696Y-100774580D02*
X149806077Y-100822200D01*
X149806077Y-100822200D02*
X149853696Y-100869819D01*
X149853696Y-100869819D02*
X149901315Y-100822200D01*
X149901315Y-100822200D02*
X149853696Y-100774580D01*
X149853696Y-100774580D02*
X149853696Y-100869819D01*
X149187030Y-99869819D02*
X149091792Y-99869819D01*
X149091792Y-99869819D02*
X148996554Y-99917438D01*
X148996554Y-99917438D02*
X148948935Y-99965057D01*
X148948935Y-99965057D02*
X148901316Y-100060295D01*
X148901316Y-100060295D02*
X148853697Y-100250771D01*
X148853697Y-100250771D02*
X148853697Y-100488866D01*
X148853697Y-100488866D02*
X148901316Y-100679342D01*
X148901316Y-100679342D02*
X148948935Y-100774580D01*
X148948935Y-100774580D02*
X148996554Y-100822200D01*
X148996554Y-100822200D02*
X149091792Y-100869819D01*
X149091792Y-100869819D02*
X149187030Y-100869819D01*
X149187030Y-100869819D02*
X149282268Y-100822200D01*
X149282268Y-100822200D02*
X149329887Y-100774580D01*
X149329887Y-100774580D02*
X149377506Y-100679342D01*
X149377506Y-100679342D02*
X149425125Y-100488866D01*
X149425125Y-100488866D02*
X149425125Y-100250771D01*
X149425125Y-100250771D02*
X149377506Y-100060295D01*
X149377506Y-100060295D02*
X149329887Y-99965057D01*
X149329887Y-99965057D02*
X149282268Y-99917438D01*
X149282268Y-99917438D02*
X149187030Y-99869819D01*
X148425125Y-100774580D02*
X148377506Y-100822200D01*
X148377506Y-100822200D02*
X148425125Y-100869819D01*
X148425125Y-100869819D02*
X148472744Y-100822200D01*
X148472744Y-100822200D02*
X148425125Y-100774580D01*
X148425125Y-100774580D02*
X148425125Y-100869819D01*
X147758459Y-99869819D02*
X147663221Y-99869819D01*
X147663221Y-99869819D02*
X147567983Y-99917438D01*
X147567983Y-99917438D02*
X147520364Y-99965057D01*
X147520364Y-99965057D02*
X147472745Y-100060295D01*
X147472745Y-100060295D02*
X147425126Y-100250771D01*
X147425126Y-100250771D02*
X147425126Y-100488866D01*
X147425126Y-100488866D02*
X147472745Y-100679342D01*
X147472745Y-100679342D02*
X147520364Y-100774580D01*
X147520364Y-100774580D02*
X147567983Y-100822200D01*
X147567983Y-100822200D02*
X147663221Y-100869819D01*
X147663221Y-100869819D02*
X147758459Y-100869819D01*
X147758459Y-100869819D02*
X147853697Y-100822200D01*
X147853697Y-100822200D02*
X147901316Y-100774580D01*
X147901316Y-100774580D02*
X147948935Y-100679342D01*
X147948935Y-100679342D02*
X147996554Y-100488866D01*
X147996554Y-100488866D02*
X147996554Y-100250771D01*
X147996554Y-100250771D02*
X147948935Y-100060295D01*
X147948935Y-100060295D02*
X147901316Y-99965057D01*
X147901316Y-99965057D02*
X147853697Y-99917438D01*
X147853697Y-99917438D02*
X147758459Y-99869819D01*
D11*
X154058898Y-104867219D02*
X154392231Y-104391028D01*
X154630326Y-104867219D02*
X154630326Y-103867219D01*
X154630326Y-103867219D02*
X154249374Y-103867219D01*
X154249374Y-103867219D02*
X154154136Y-103914838D01*
X154154136Y-103914838D02*
X154106517Y-103962457D01*
X154106517Y-103962457D02*
X154058898Y-104057695D01*
X154058898Y-104057695D02*
X154058898Y-104200552D01*
X154058898Y-104200552D02*
X154106517Y-104295790D01*
X154106517Y-104295790D02*
X154154136Y-104343409D01*
X154154136Y-104343409D02*
X154249374Y-104391028D01*
X154249374Y-104391028D02*
X154630326Y-104391028D01*
X153630326Y-104867219D02*
X153630326Y-104200552D01*
X153630326Y-103867219D02*
X153677945Y-103914838D01*
X153677945Y-103914838D02*
X153630326Y-103962457D01*
X153630326Y-103962457D02*
X153582707Y-103914838D01*
X153582707Y-103914838D02*
X153630326Y-103867219D01*
X153630326Y-103867219D02*
X153630326Y-103962457D01*
X153249374Y-104200552D02*
X153011279Y-104867219D01*
X153011279Y-104867219D02*
X152773184Y-104200552D01*
X152392231Y-104867219D02*
X152392231Y-104200552D01*
X152392231Y-103867219D02*
X152439850Y-103914838D01*
X152439850Y-103914838D02*
X152392231Y-103962457D01*
X152392231Y-103962457D02*
X152344612Y-103914838D01*
X152344612Y-103914838D02*
X152392231Y-103867219D01*
X152392231Y-103867219D02*
X152392231Y-103962457D01*
X151487470Y-104867219D02*
X151487470Y-104343409D01*
X151487470Y-104343409D02*
X151535089Y-104248171D01*
X151535089Y-104248171D02*
X151630327Y-104200552D01*
X151630327Y-104200552D02*
X151820803Y-104200552D01*
X151820803Y-104200552D02*
X151916041Y-104248171D01*
X151487470Y-104819600D02*
X151582708Y-104867219D01*
X151582708Y-104867219D02*
X151820803Y-104867219D01*
X151820803Y-104867219D02*
X151916041Y-104819600D01*
X151916041Y-104819600D02*
X151963660Y-104724361D01*
X151963660Y-104724361D02*
X151963660Y-104629123D01*
X151963660Y-104629123D02*
X151916041Y-104533885D01*
X151916041Y-104533885D02*
X151820803Y-104486266D01*
X151820803Y-104486266D02*
X151582708Y-104486266D01*
X151582708Y-104486266D02*
X151487470Y-104438647D01*
X151011279Y-104200552D02*
X151011279Y-104867219D01*
X151011279Y-104295790D02*
X150963660Y-104248171D01*
X150963660Y-104248171D02*
X150868422Y-104200552D01*
X150868422Y-104200552D02*
X150725565Y-104200552D01*
X150725565Y-104200552D02*
X150630327Y-104248171D01*
X150630327Y-104248171D02*
X150582708Y-104343409D01*
X150582708Y-104343409D02*
X150582708Y-104867219D01*
X149392231Y-104581504D02*
X148916041Y-104581504D01*
X149487469Y-104867219D02*
X149154136Y-103867219D01*
X149154136Y-103867219D02*
X148820803Y-104867219D01*
X147773183Y-104581504D02*
X147296993Y-104581504D01*
X147868421Y-104867219D02*
X147535088Y-103867219D01*
X147535088Y-103867219D02*
X147201755Y-104867219D01*
X146439850Y-104867219D02*
X146439850Y-103867219D01*
X146439850Y-104819600D02*
X146535088Y-104867219D01*
X146535088Y-104867219D02*
X146725564Y-104867219D01*
X146725564Y-104867219D02*
X146820802Y-104819600D01*
X146820802Y-104819600D02*
X146868421Y-104771980D01*
X146868421Y-104771980D02*
X146916040Y-104676742D01*
X146916040Y-104676742D02*
X146916040Y-104391028D01*
X146916040Y-104391028D02*
X146868421Y-104295790D01*
X146868421Y-104295790D02*
X146820802Y-104248171D01*
X146820802Y-104248171D02*
X146725564Y-104200552D01*
X146725564Y-104200552D02*
X146535088Y-104200552D01*
X146535088Y-104200552D02*
X146439850Y-104248171D01*
X145535088Y-104867219D02*
X145535088Y-104343409D01*
X145535088Y-104343409D02*
X145582707Y-104248171D01*
X145582707Y-104248171D02*
X145677945Y-104200552D01*
X145677945Y-104200552D02*
X145868421Y-104200552D01*
X145868421Y-104200552D02*
X145963659Y-104248171D01*
X145535088Y-104819600D02*
X145630326Y-104867219D01*
X145630326Y-104867219D02*
X145868421Y-104867219D01*
X145868421Y-104867219D02*
X145963659Y-104819600D01*
X145963659Y-104819600D02*
X146011278Y-104724361D01*
X146011278Y-104724361D02*
X146011278Y-104629123D01*
X146011278Y-104629123D02*
X145963659Y-104533885D01*
X145963659Y-104533885D02*
X145868421Y-104486266D01*
X145868421Y-104486266D02*
X145630326Y-104486266D01*
X145630326Y-104486266D02*
X145535088Y-104438647D01*
X145058897Y-104200552D02*
X145058897Y-105200552D01*
X145058897Y-104248171D02*
X144963659Y-104200552D01*
X144963659Y-104200552D02*
X144773183Y-104200552D01*
X144773183Y-104200552D02*
X144677945Y-104248171D01*
X144677945Y-104248171D02*
X144630326Y-104295790D01*
X144630326Y-104295790D02*
X144582707Y-104391028D01*
X144582707Y-104391028D02*
X144582707Y-104676742D01*
X144582707Y-104676742D02*
X144630326Y-104771980D01*
X144630326Y-104771980D02*
X144677945Y-104819600D01*
X144677945Y-104819600D02*
X144773183Y-104867219D01*
X144773183Y-104867219D02*
X144963659Y-104867219D01*
X144963659Y-104867219D02*
X145058897Y-104819600D01*
X144296992Y-104200552D02*
X143916040Y-104200552D01*
X144154135Y-103867219D02*
X144154135Y-104724361D01*
X144154135Y-104724361D02*
X144106516Y-104819600D01*
X144106516Y-104819600D02*
X144011278Y-104867219D01*
X144011278Y-104867219D02*
X143916040Y-104867219D01*
X143201754Y-104819600D02*
X143296992Y-104867219D01*
X143296992Y-104867219D02*
X143487468Y-104867219D01*
X143487468Y-104867219D02*
X143582706Y-104819600D01*
X143582706Y-104819600D02*
X143630325Y-104724361D01*
X143630325Y-104724361D02*
X143630325Y-104343409D01*
X143630325Y-104343409D02*
X143582706Y-104248171D01*
X143582706Y-104248171D02*
X143487468Y-104200552D01*
X143487468Y-104200552D02*
X143296992Y-104200552D01*
X143296992Y-104200552D02*
X143201754Y-104248171D01*
X143201754Y-104248171D02*
X143154135Y-104343409D01*
X143154135Y-104343409D02*
X143154135Y-104438647D01*
X143154135Y-104438647D02*
X143630325Y-104533885D01*
X142725563Y-104867219D02*
X142725563Y-104200552D01*
X142725563Y-104391028D02*
X142677944Y-104295790D01*
X142677944Y-104295790D02*
X142630325Y-104248171D01*
X142630325Y-104248171D02*
X142535087Y-104200552D01*
X142535087Y-104200552D02*
X142439849Y-104200552D01*
X141344610Y-104867219D02*
X141344610Y-103867219D01*
X141344610Y-104248171D02*
X141249372Y-104200552D01*
X141249372Y-104200552D02*
X141058896Y-104200552D01*
X141058896Y-104200552D02*
X140963658Y-104248171D01*
X140963658Y-104248171D02*
X140916039Y-104295790D01*
X140916039Y-104295790D02*
X140868420Y-104391028D01*
X140868420Y-104391028D02*
X140868420Y-104676742D01*
X140868420Y-104676742D02*
X140916039Y-104771980D01*
X140916039Y-104771980D02*
X140963658Y-104819600D01*
X140963658Y-104819600D02*
X141058896Y-104867219D01*
X141058896Y-104867219D02*
X141249372Y-104867219D01*
X141249372Y-104867219D02*
X141344610Y-104819600D01*
X140296991Y-104867219D02*
X140392229Y-104819600D01*
X140392229Y-104819600D02*
X140439848Y-104771980D01*
X140439848Y-104771980D02*
X140487467Y-104676742D01*
X140487467Y-104676742D02*
X140487467Y-104391028D01*
X140487467Y-104391028D02*
X140439848Y-104295790D01*
X140439848Y-104295790D02*
X140392229Y-104248171D01*
X140392229Y-104248171D02*
X140296991Y-104200552D01*
X140296991Y-104200552D02*
X140154134Y-104200552D01*
X140154134Y-104200552D02*
X140058896Y-104248171D01*
X140058896Y-104248171D02*
X140011277Y-104295790D01*
X140011277Y-104295790D02*
X139963658Y-104391028D01*
X139963658Y-104391028D02*
X139963658Y-104676742D01*
X139963658Y-104676742D02*
X140011277Y-104771980D01*
X140011277Y-104771980D02*
X140058896Y-104819600D01*
X140058896Y-104819600D02*
X140154134Y-104867219D01*
X140154134Y-104867219D02*
X140296991Y-104867219D01*
X139106515Y-104867219D02*
X139106515Y-104343409D01*
X139106515Y-104343409D02*
X139154134Y-104248171D01*
X139154134Y-104248171D02*
X139249372Y-104200552D01*
X139249372Y-104200552D02*
X139439848Y-104200552D01*
X139439848Y-104200552D02*
X139535086Y-104248171D01*
X139106515Y-104819600D02*
X139201753Y-104867219D01*
X139201753Y-104867219D02*
X139439848Y-104867219D01*
X139439848Y-104867219D02*
X139535086Y-104819600D01*
X139535086Y-104819600D02*
X139582705Y-104724361D01*
X139582705Y-104724361D02*
X139582705Y-104629123D01*
X139582705Y-104629123D02*
X139535086Y-104533885D01*
X139535086Y-104533885D02*
X139439848Y-104486266D01*
X139439848Y-104486266D02*
X139201753Y-104486266D01*
X139201753Y-104486266D02*
X139106515Y-104438647D01*
X138630324Y-104867219D02*
X138630324Y-104200552D01*
X138630324Y-104391028D02*
X138582705Y-104295790D01*
X138582705Y-104295790D02*
X138535086Y-104248171D01*
X138535086Y-104248171D02*
X138439848Y-104200552D01*
X138439848Y-104200552D02*
X138344610Y-104200552D01*
X137582705Y-104867219D02*
X137582705Y-103867219D01*
X137582705Y-104819600D02*
X137677943Y-104867219D01*
X137677943Y-104867219D02*
X137868419Y-104867219D01*
X137868419Y-104867219D02*
X137963657Y-104819600D01*
X137963657Y-104819600D02*
X138011276Y-104771980D01*
X138011276Y-104771980D02*
X138058895Y-104676742D01*
X138058895Y-104676742D02*
X138058895Y-104391028D01*
X138058895Y-104391028D02*
X138011276Y-104295790D01*
X138011276Y-104295790D02*
X137963657Y-104248171D01*
X137963657Y-104248171D02*
X137868419Y-104200552D01*
X137868419Y-104200552D02*
X137677943Y-104200552D01*
X137677943Y-104200552D02*
X137582705Y-104248171D01*
D10*
X154710839Y-101965057D02*
X154663220Y-101917438D01*
X154663220Y-101917438D02*
X154567982Y-101869819D01*
X154567982Y-101869819D02*
X154329887Y-101869819D01*
X154329887Y-101869819D02*
X154234649Y-101917438D01*
X154234649Y-101917438D02*
X154187030Y-101965057D01*
X154187030Y-101965057D02*
X154139411Y-102060295D01*
X154139411Y-102060295D02*
X154139411Y-102155533D01*
X154139411Y-102155533D02*
X154187030Y-102298390D01*
X154187030Y-102298390D02*
X154758458Y-102869819D01*
X154758458Y-102869819D02*
X154139411Y-102869819D01*
X153282268Y-102203152D02*
X153282268Y-102869819D01*
X153520363Y-101822200D02*
X153758458Y-102536485D01*
X153758458Y-102536485D02*
X153139411Y-102536485D01*
X152044173Y-101822200D02*
X152901315Y-103107914D01*
X151520363Y-101869819D02*
X151425125Y-101869819D01*
X151425125Y-101869819D02*
X151329887Y-101917438D01*
X151329887Y-101917438D02*
X151282268Y-101965057D01*
X151282268Y-101965057D02*
X151234649Y-102060295D01*
X151234649Y-102060295D02*
X151187030Y-102250771D01*
X151187030Y-102250771D02*
X151187030Y-102488866D01*
X151187030Y-102488866D02*
X151234649Y-102679342D01*
X151234649Y-102679342D02*
X151282268Y-102774580D01*
X151282268Y-102774580D02*
X151329887Y-102822200D01*
X151329887Y-102822200D02*
X151425125Y-102869819D01*
X151425125Y-102869819D02*
X151520363Y-102869819D01*
X151520363Y-102869819D02*
X151615601Y-102822200D01*
X151615601Y-102822200D02*
X151663220Y-102774580D01*
X151663220Y-102774580D02*
X151710839Y-102679342D01*
X151710839Y-102679342D02*
X151758458Y-102488866D01*
X151758458Y-102488866D02*
X151758458Y-102250771D01*
X151758458Y-102250771D02*
X151710839Y-102060295D01*
X151710839Y-102060295D02*
X151663220Y-101965057D01*
X151663220Y-101965057D02*
X151615601Y-101917438D01*
X151615601Y-101917438D02*
X151520363Y-101869819D01*
X150615601Y-102298390D02*
X150710839Y-102250771D01*
X150710839Y-102250771D02*
X150758458Y-102203152D01*
X150758458Y-102203152D02*
X150806077Y-102107914D01*
X150806077Y-102107914D02*
X150806077Y-102060295D01*
X150806077Y-102060295D02*
X150758458Y-101965057D01*
X150758458Y-101965057D02*
X150710839Y-101917438D01*
X150710839Y-101917438D02*
X150615601Y-101869819D01*
X150615601Y-101869819D02*
X150425125Y-101869819D01*
X150425125Y-101869819D02*
X150329887Y-101917438D01*
X150329887Y-101917438D02*
X150282268Y-101965057D01*
X150282268Y-101965057D02*
X150234649Y-102060295D01*
X150234649Y-102060295D02*
X150234649Y-102107914D01*
X150234649Y-102107914D02*
X150282268Y-102203152D01*
X150282268Y-102203152D02*
X150329887Y-102250771D01*
X150329887Y-102250771D02*
X150425125Y-102298390D01*
X150425125Y-102298390D02*
X150615601Y-102298390D01*
X150615601Y-102298390D02*
X150710839Y-102346009D01*
X150710839Y-102346009D02*
X150758458Y-102393628D01*
X150758458Y-102393628D02*
X150806077Y-102488866D01*
X150806077Y-102488866D02*
X150806077Y-102679342D01*
X150806077Y-102679342D02*
X150758458Y-102774580D01*
X150758458Y-102774580D02*
X150710839Y-102822200D01*
X150710839Y-102822200D02*
X150615601Y-102869819D01*
X150615601Y-102869819D02*
X150425125Y-102869819D01*
X150425125Y-102869819D02*
X150329887Y-102822200D01*
X150329887Y-102822200D02*
X150282268Y-102774580D01*
X150282268Y-102774580D02*
X150234649Y-102679342D01*
X150234649Y-102679342D02*
X150234649Y-102488866D01*
X150234649Y-102488866D02*
X150282268Y-102393628D01*
X150282268Y-102393628D02*
X150329887Y-102346009D01*
X150329887Y-102346009D02*
X150425125Y-102298390D01*
X149091792Y-101822200D02*
X149948934Y-103107914D01*
X148806077Y-101965057D02*
X148758458Y-101917438D01*
X148758458Y-101917438D02*
X148663220Y-101869819D01*
X148663220Y-101869819D02*
X148425125Y-101869819D01*
X148425125Y-101869819D02*
X148329887Y-101917438D01*
X148329887Y-101917438D02*
X148282268Y-101965057D01*
X148282268Y-101965057D02*
X148234649Y-102060295D01*
X148234649Y-102060295D02*
X148234649Y-102155533D01*
X148234649Y-102155533D02*
X148282268Y-102298390D01*
X148282268Y-102298390D02*
X148853696Y-102869819D01*
X148853696Y-102869819D02*
X148234649Y-102869819D01*
X147615601Y-101869819D02*
X147520363Y-101869819D01*
X147520363Y-101869819D02*
X147425125Y-101917438D01*
X147425125Y-101917438D02*
X147377506Y-101965057D01*
X147377506Y-101965057D02*
X147329887Y-102060295D01*
X147329887Y-102060295D02*
X147282268Y-102250771D01*
X147282268Y-102250771D02*
X147282268Y-102488866D01*
X147282268Y-102488866D02*
X147329887Y-102679342D01*
X147329887Y-102679342D02*
X147377506Y-102774580D01*
X147377506Y-102774580D02*
X147425125Y-102822200D01*
X147425125Y-102822200D02*
X147520363Y-102869819D01*
X147520363Y-102869819D02*
X147615601Y-102869819D01*
X147615601Y-102869819D02*
X147710839Y-102822200D01*
X147710839Y-102822200D02*
X147758458Y-102774580D01*
X147758458Y-102774580D02*
X147806077Y-102679342D01*
X147806077Y-102679342D02*
X147853696Y-102488866D01*
X147853696Y-102488866D02*
X147853696Y-102250771D01*
X147853696Y-102250771D02*
X147806077Y-102060295D01*
X147806077Y-102060295D02*
X147758458Y-101965057D01*
X147758458Y-101965057D02*
X147710839Y-101917438D01*
X147710839Y-101917438D02*
X147615601Y-101869819D01*
X146901315Y-101965057D02*
X146853696Y-101917438D01*
X146853696Y-101917438D02*
X146758458Y-101869819D01*
X146758458Y-101869819D02*
X146520363Y-101869819D01*
X146520363Y-101869819D02*
X146425125Y-101917438D01*
X146425125Y-101917438D02*
X146377506Y-101965057D01*
X146377506Y-101965057D02*
X146329887Y-102060295D01*
X146329887Y-102060295D02*
X146329887Y-102155533D01*
X146329887Y-102155533D02*
X146377506Y-102298390D01*
X146377506Y-102298390D02*
X146948934Y-102869819D01*
X146948934Y-102869819D02*
X146329887Y-102869819D01*
X145425125Y-101869819D02*
X145901315Y-101869819D01*
X145901315Y-101869819D02*
X145948934Y-102346009D01*
X145948934Y-102346009D02*
X145901315Y-102298390D01*
X145901315Y-102298390D02*
X145806077Y-102250771D01*
X145806077Y-102250771D02*
X145567982Y-102250771D01*
X145567982Y-102250771D02*
X145472744Y-102298390D01*
X145472744Y-102298390D02*
X145425125Y-102346009D01*
X145425125Y-102346009D02*
X145377506Y-102441247D01*
X145377506Y-102441247D02*
X145377506Y-102679342D01*
X145377506Y-102679342D02*
X145425125Y-102774580D01*
X145425125Y-102774580D02*
X145472744Y-102822200D01*
X145472744Y-102822200D02*
X145567982Y-102869819D01*
X145567982Y-102869819D02*
X145806077Y-102869819D01*
X145806077Y-102869819D02*
X145901315Y-102822200D01*
X145901315Y-102822200D02*
X145948934Y-102774580D01*
D12*
G36*
X131063231Y-95496557D02*
G01*
X131451628Y-95846360D01*
X131980162Y-96374876D01*
X132589273Y-97024827D01*
X134084919Y-98667835D01*
X133957664Y-99670660D01*
X133935033Y-99833418D01*
X133576080Y-101144813D01*
X132937397Y-102196439D01*
X132022326Y-102982576D01*
X131905265Y-103054281D01*
X131406794Y-103323469D01*
X130937587Y-103476125D01*
X130359789Y-103544252D01*
X129535545Y-103559849D01*
X128803452Y-103543310D01*
X128046801Y-103457002D01*
X127301764Y-103264781D01*
X126391563Y-102931306D01*
X126236089Y-102870281D01*
X125345468Y-102557049D01*
X124676739Y-102431882D01*
X124124598Y-102505948D01*
X123583741Y-102790417D01*
X122948865Y-103296456D01*
X122723895Y-103486635D01*
X122221921Y-103839855D01*
X121758178Y-104001969D01*
X121170368Y-104040910D01*
X120874695Y-104034358D01*
X120377290Y-103988282D01*
X120123738Y-103912627D01*
X120115411Y-103896129D01*
X120077317Y-103601053D01*
X120044366Y-102993309D01*
X120018466Y-102132720D01*
X120001526Y-101079111D01*
X119995455Y-99892305D01*
X119995162Y-99295936D01*
X119997142Y-98078162D01*
X120015632Y-97177936D01*
X120066423Y-96547429D01*
X120165308Y-96138811D01*
X120328077Y-95904255D01*
X120570523Y-95795932D01*
X120908436Y-95766012D01*
X121357608Y-95766667D01*
X121801896Y-95805953D01*
X122307372Y-96011909D01*
X122877834Y-96459444D01*
X122903197Y-96482345D01*
X123347306Y-96859483D01*
X123700321Y-97043855D01*
X124119727Y-97082491D01*
X124763010Y-97022421D01*
X125020110Y-96997512D01*
X125976691Y-97024099D01*
X126826201Y-97288075D01*
X127656066Y-97827698D01*
X128553714Y-98681225D01*
X128719062Y-98853624D01*
X129228888Y-99338512D01*
X129636801Y-99658997D01*
X129866586Y-99752869D01*
X129986889Y-99604948D01*
X130045410Y-99164412D01*
X129995604Y-98541227D01*
X129847661Y-97839021D01*
X129611771Y-97161424D01*
X129253176Y-96343301D01*
X129960651Y-95862560D01*
X130153228Y-95736754D01*
X130602153Y-95482821D01*
X130880876Y-95381819D01*
X131063231Y-95496557D01*
G37*
G36*
X135018658Y-98717715D02*
G01*
X135190957Y-98845731D01*
X135253876Y-99155287D01*
X135240541Y-99746825D01*
X135090245Y-100769607D01*
X134614973Y-101996037D01*
X133869916Y-103029144D01*
X132902564Y-103846555D01*
X131760407Y-104425894D01*
X130490938Y-104744785D01*
X129141647Y-104780854D01*
X127760024Y-104511726D01*
X126393561Y-103915026D01*
X126120256Y-103746808D01*
X125729335Y-103448723D01*
X125575758Y-103240659D01*
X125576764Y-103203750D01*
X125612102Y-103125485D01*
X125746920Y-103117433D01*
X126046770Y-103194908D01*
X126577208Y-103373224D01*
X127403788Y-103667695D01*
X128037194Y-103867615D01*
X128875117Y-104005348D01*
X129836528Y-103992449D01*
X129886010Y-103988840D01*
X131277461Y-103744791D01*
X132394474Y-103235923D01*
X133252305Y-102448378D01*
X133866209Y-101368297D01*
X134251440Y-99981821D01*
X134260048Y-99933800D01*
X134396867Y-99248045D01*
X134522646Y-98863314D01*
X134675283Y-98703378D01*
X134892677Y-98692006D01*
X135018658Y-98717715D01*
G37*
%LPC*%
D13*
X152550000Y-80000000D03*
X152550000Y-78000000D03*
X150550000Y-80000000D03*
X150550000Y-78000000D03*
X148550000Y-80000000D03*
X148550000Y-78000000D03*
X146550000Y-80000000D03*
X146550000Y-78000000D03*
X144550000Y-80000000D03*
X144550000Y-78000000D03*
X142550000Y-80000000D03*
X142550000Y-78000000D03*
X140550000Y-80000000D03*
X140550000Y-78000000D03*
X138550000Y-80000000D03*
D14*
X138550000Y-78000000D03*
D15*
X154325000Y-86800000D03*
X120075000Y-86800000D03*
D16*
X121900000Y-83750000D03*
D17*
X123700000Y-83750000D03*
X125500000Y-83750000D03*
X127300000Y-83750000D03*
X129100000Y-83750000D03*
X130900000Y-83750000D03*
X132700000Y-83750000D03*
X141700000Y-83750000D03*
X143500000Y-83750000D03*
X145300000Y-83750000D03*
X147100000Y-83750000D03*
X148900000Y-83750000D03*
X150700000Y-83750000D03*
X152500000Y-83750000D03*
X152500000Y-86250000D03*
X150700000Y-86250000D03*
X148900000Y-86250000D03*
X147100000Y-86250000D03*
X145300000Y-86250000D03*
X143500000Y-86250000D03*
X141700000Y-86250000D03*
X139900000Y-86250000D03*
X138100000Y-86250000D03*
X136300000Y-86250000D03*
X134500000Y-86250000D03*
X132700000Y-86250000D03*
X130900000Y-86250000D03*
X129100000Y-86250000D03*
X127300000Y-86250000D03*
X125500000Y-86250000D03*
X123700000Y-86250000D03*
X121900000Y-86250000D03*
D18*
X129950000Y-79950000D03*
X129950000Y-77950000D03*
X127950000Y-79950000D03*
X127950000Y-77950000D03*
X125950000Y-79950000D03*
X125950000Y-77950000D03*
X123950000Y-79950000D03*
X123950000Y-77950000D03*
X121950000Y-79950000D03*
D19*
X121950000Y-77950000D03*
%LPD*%
M02*
